<svg xmlns="http://www.w3.org/2000/svg" width="80.279" height="85.5" viewBox="0 0 80.279 85.5"><defs><style>.a{fill:#010101;}</style></defs><g transform="translate(382.861 -71.896)"><g transform="translate(-382.861 71.896)"><g transform="translate(0 0)"><path class="a" d="M49.814,9.05l.1-.2a.926.926,0,0,1,1.27-.2l.293.293c.1.1.2.1.2.2a7.225,7.225,0,0,1,4.1-1.173,7.345,7.345,0,0,1,2.15,14.363,7.62,7.62,0,0,1-2.15.293,7.058,7.058,0,0,1-4.3-1.368,7.357,7.357,0,0,1-3.029-5.96,7.557,7.557,0,0,1,.782-3.322h0l-.293-.2a.926.926,0,0,1-.2-1.27l.2-.2c-2.345-.489-1.661,1.563-1.563,7.817.1,3.713-5.276,5.96-9.771,2.443,1.466.2,4.495.489,4.3-2.443-.1-1.661-2.15-7.719,1.563-10.259C46.687,5.337,48.934,8.463,49.814,9.05Z" transform="translate(-8.814 -6.896)"/><path class="a" d="M89.7,75.179v2.54a.876.876,0,0,1-.879.879H65.079a.876.876,0,0,1-.879-.879v-2.54a.876.876,0,0,1,.879-.879H88.823A.876.876,0,0,1,89.7,75.179Z" transform="translate(-9.423 -8.44)"/><path class="a" d="M79.375,38.583v2.052a1.293,1.293,0,0,1-1.27,1.27H66.478a1.2,1.2,0,0,1-.977-.489l-5.569-6.156-4.885,12.6,15.047,5.569a1.138,1.138,0,0,1,.782,1.173v.1l-.586,13.288a1.293,1.293,0,0,1-1.27,1.27H66.185a1.293,1.293,0,0,1-1.27-1.27l-.684-7.328L54.069,57.05,48.6,55.1,47.522,54.7l-5.863-2.15a1.15,1.15,0,0,1-.684-1.27l2.736-18.174L36.09,35.358h-.1L32.475,45.422a1.2,1.2,0,0,1-1.563.782l-2.931-1.27A1.2,1.2,0,0,1,27.2,43.37l4.495-12.116a1.06,1.06,0,0,1,.782-.782h0c.1-.1.2-.1.293-.2l12.8-4.592c1.856-.684,3.713-1.075,5.179.2.489.489,2.247,2.345,3.811,3.908A.7.7,0,0,0,55.73,29.5c.391-.782.782-3.029,1.173-3.42.586-.586,2.15-.684,3.908.782l7.426,9.673a1.349,1.349,0,0,0,.391.293l8.794.391C78.887,37.313,79.375,37.9,79.375,38.583Z" transform="translate(-8.574 -7.312)"/><path class="a" d="M76.1,82.979v2.54a.876.876,0,0,1-.879.879H51.479a.876.876,0,0,1-.879-.879v-2.54a.876.876,0,0,1,.879-.879H75.223A.876.876,0,0,1,76.1,82.979Z" transform="translate(-9.112 -8.618)"/><path class="a" d="M60.9,90.879v2.54a.876.876,0,0,1-.879.879H36.279a.876.876,0,0,1-.879-.879v-2.54A.876.876,0,0,1,36.279,90H60.023A.876.876,0,0,1,60.9,90.879Z" transform="translate(-8.764 -8.799)"/><path class="a" d="M54.669,57.654h0L49.1,55.7h.1Z" transform="translate(-9.077 -8.014)"/><path class="a" d="M50.874,71.3a1.22,1.22,0,0,1,.293,1.563v.1l-.1.1L42.08,83.123a1.332,1.332,0,0,1-1.759.2L37.39,81.266a1.332,1.332,0,0,1-.2-1.759l5.374-6.84.1-.2" transform="translate(-8.799 -8.371)"/><path class="a" d="M42.9,72.163l-.1.2v-.2L45.34,57.8l8.7,3.127L51.594,72.066a.741.741,0,0,1-.2.391" transform="translate(-8.933 -8.062)"/><path class="a" d="M38.391,56.292c.684.2,0,2.931-.2,3.518L34.482,70.753a1.239,1.239,0,0,1-1.563.782L8.98,62.741A1.239,1.239,0,0,1,8.2,61.178l4.69-12.9a1.239,1.239,0,0,1,1.563-.782Z" transform="translate(-8.139 -7.824)"/><path class="a" d="M32.754,49.122a.474.474,0,0,1,.293.586l-.782,2.15a.474.474,0,0,1-.586.293l-9.087-3.322a.474.474,0,0,1-.293-.586l.782-2.15c.1-.2.391-.391.586-.293Z" transform="translate(-8.463 -7.786)"/></g></g></g></svg>