<svg xmlns="http://www.w3.org/2000/svg" width="79.998" height="80.01" viewBox="0 0 79.998 80.01"><g transform="translate(-2 -1.991)"><path d="M43.265,21.866a.445.445,0,0,1,.315-.759h.305a3.111,3.111,0,1,0,0-6.221H43.58a.445.445,0,0,1-.313-.76l.213-.215a3.109,3.109,0,0,0,0-4.4,3.184,3.184,0,0,0-4.4,0l-.215.221a.445.445,0,0,1-.759-.315V9.111a3.111,3.111,0,1,0-6.221,0v.305a.445.445,0,0,1-.753.317l-.216-.216a3.184,3.184,0,0,0-4.4,0,3.111,3.111,0,0,0,0,4.4l.217.217a.445.445,0,0,1-.315.759h-.305a3.111,3.111,0,1,0,0,6.221h.305a.445.445,0,0,1,.315.759l-.216.216a3.111,3.111,0,0,0,0,4.4,3.184,3.184,0,0,0,4.4,0l.215-.223a.445.445,0,0,1,.759.315v.305a3.111,3.111,0,1,0,6.221,0v-.305a.445.445,0,0,1,.753-.315l.216.216a3.184,3.184,0,0,0,4.4,0,3.111,3.111,0,0,0,0-4.4ZM41.6,24.6a.375.375,0,0,1-.628,0l-.216-.216a3.111,3.111,0,0,0-5.311,2.2v.305a.444.444,0,0,1-.888,0v-.305a3.111,3.111,0,0,0-5.31-2.2l-.216.216a.375.375,0,0,1-.629,0,.436.436,0,0,1-.133-.313.443.443,0,0,1,.133-.315l.216-.216a3.111,3.111,0,0,0-2.2-5.311H26.11a.444.444,0,1,1,0-.888h.305a3.111,3.111,0,0,0,2.2-5.309l-.217-.219a.444.444,0,0,1,0-.628.376.376,0,0,1,.628,0l.216.216a3.111,3.111,0,0,0,5.311-2.2V9.111a.444.444,0,1,1,.888,0v.305a3.111,3.111,0,0,0,5.311,2.2l.216-.216a.376.376,0,0,1,.629,0,.444.444,0,0,1,0,.628l-.215.216a3.111,3.111,0,0,0,2.2,5.311h.305a.444.444,0,1,1,0,.888h-.305a3.111,3.111,0,0,0-2.2,5.311l.216.216a.443.443,0,0,1,.133.315A.437.437,0,0,1,41.6,24.6Z" transform="translate(7 1.336)"/><path d="M33,12a4,4,0,1,0,4,4A4,4,0,0,0,33,12Zm0,5.333A1.333,1.333,0,1,1,34.333,16,1.333,1.333,0,0,1,33,17.333Z" transform="translate(8.999 3.336)"/><path d="M17.333,82h40a1.333,1.333,0,0,0,1.333-1.333V55.335A21.353,21.353,0,0,0,44.3,35.194a17.333,17.333,0,1,0-13.936,0A21.353,21.353,0,0,0,16,55.335V80.667A1.333,1.333,0,0,0,17.333,82Zm5.333-62.665A14.666,14.666,0,1,1,37.333,34,14.666,14.666,0,0,1,22.666,19.336Zm-4,36a18.666,18.666,0,0,1,37.332,0v24H18.667Z" transform="translate(4.666 0)"/><path d="M5.909,14l-.836,5.125a1.333,1.333,0,0,0,1.961,1.381l4.3-2.383,4.3,2.376A1.333,1.333,0,0,0,17.6,19.118L16.757,14l3.531-3.617a1.333,1.333,0,0,0-.753-2.249L14.71,7.4,12.533,2.767a1.333,1.333,0,0,0-2.413,0L7.956,7.389l-4.824.744a1.333,1.333,0,0,0-.753,2.249ZM9.067,9.918a1.333,1.333,0,0,0,1.005-.752l1.261-2.695L12.6,9.166a1.333,1.333,0,0,0,1.005.752l2.963.452-2.188,2.243a1.333,1.333,0,0,0-.361,1.145l.5,3.079-2.541-1.4a1.333,1.333,0,0,0-1.291,0l-2.541,1.4.5-3.079a1.333,1.333,0,0,0-.361-1.145L6.1,10.37Z" transform="translate(0 0.003)"/><path d="M51.909,14l-.836,5.125a1.333,1.333,0,0,0,1.961,1.381l4.3-2.383,4.3,2.376A1.333,1.333,0,0,0,63.6,19.118L62.757,14l3.531-3.617a1.333,1.333,0,0,0-.753-2.249L60.71,7.4,58.54,2.767a1.333,1.333,0,0,0-2.413,0L53.956,7.389l-4.824.744a1.333,1.333,0,0,0-.753,2.249Zm3.157-4.081a1.333,1.333,0,0,0,1.005-.752l1.261-2.695L58.6,9.166a1.333,1.333,0,0,0,1.005.752l2.963.452-2.188,2.243a1.333,1.333,0,0,0-.361,1.145l.5,3.079-2.541-1.4a1.333,1.333,0,0,0-1.291,0l-2.541,1.4.5-3.079a1.333,1.333,0,0,0-.361-1.145L52.1,10.37Z" transform="translate(15.331 0.003)"/><path d="M65,30.318H58.333V27.651H61a1.333,1.333,0,0,0,1.2-1.929l-4-8a1.389,1.389,0,0,0-2.387,0l-4,8A1.333,1.333,0,0,0,53,27.651h2.667v4A1.333,1.333,0,0,0,57,32.985h6.666v6.666H49v2.667H65a1.333,1.333,0,0,0,1.333-1.333V31.651A1.333,1.333,0,0,0,65,30.318ZM57,21.3l1.843,3.685H55.157Z" transform="translate(15.665 5.017)"/><path d="M3.333,42.318h16V39.651H4.667V32.985h6.666a1.333,1.333,0,0,0,1.333-1.333v-4h2.667a1.333,1.333,0,0,0,1.193-1.929l-4-8a1.389,1.389,0,0,0-2.387,0l-4,8a1.333,1.333,0,0,0,1.193,1.929H10v2.667H3.333A1.333,1.333,0,0,0,2,31.651v9.333A1.333,1.333,0,0,0,3.333,42.318Zm8-21.018,1.843,3.685H9.49Z" transform="translate(0 5.017)"/></g></svg>