<svg xmlns="http://www.w3.org/2000/svg" width="80.827" height="85" viewBox="0 0 80.827 85"><g transform="translate(-48 719)"><g transform="translate(48 -719)"><g transform="translate(0 0)"><path d="M24.968,13.406a7.788,7.788,0,1,0-11.019-.219A7.787,7.787,0,0,0,24.968,13.406Z" transform="translate(-3.853 0)"/><path d="M36.738,22.992c-10.714-4.913-16.894-3.848-20.159-2.156a16.058,16.058,0,0,1,4.7-.669c2.912,0,5.425.7,6.9,1.909l9.5,8.676a4.785,4.785,0,0,1,1.559,5.555l-6.9,14.631L28.95,49.609c-.011.1-.024.211-.038.315L29.6,62.913c9.5,14.912,25.5,22.341,25.5,22.341s.834-11.57,9.221-14.037,16.1-6.57,16.239-18.05C80.764,36.043,85.4,31.361,85.4,31.361,78.527,33.771,51.236,29.636,36.738,22.992Z" transform="translate(-4.573 -2.913)"/><path d="M25.3,50.317c.018-.188.059-.369.06-.559l.015-1.922,4.092,1.6,6.269-13.28A3.294,3.294,0,0,0,34.609,32.3l-9.495-8.676c-2.7-2.226-9.777-1.981-12.453.09L3.766,31.7A3.3,3.3,0,0,0,2.61,35.333L7.959,48.9l4.233-1.346-.017,2.1a6.591,6.591,0,0,0,.114,1.216L8.657,65.019a4.183,4.183,0,0,0-.126,1.1l.462,21.985,8.237-.174L16.78,66.51l.933-3.63.351,6.61c0,.051.007.1.012.153l1.683,18.664,8.2-.74L26.288,68.975Zm.717-16.625,2.657,2.423L25.377,47.059ZM9.6,35.562l2.192-1.972L12.2,46.816Zm12.776,1.707-3.233-2.36-3.233,2.36,1.243-3.8-3.242-2.348,4,.009,1.23-3.81,1.228,3.81,4-.009-3.243,2.348Z" transform="translate(-2.454 -3.308)"/></g></g></g></svg>