<svg xmlns="http://www.w3.org/2000/svg" width="88.92" height="80.24" viewBox="0 0 88.92 80.24"><g transform="translate(0 -4.881)"><g transform="translate(0 4.881)"><path d="M23.778,5.71A23.778,23.778,0,1,0,47.556,29.487,23.8,23.8,0,0,0,23.778,5.71ZM37.805,46.922a22.389,22.389,0,0,1-4.651,2.893V38.793a.694.694,0,0,0-1.389,0V50.4a22.38,22.38,0,0,1-15.917.022V38.793a.694.694,0,0,0-1.389,0v11.05a22.424,22.424,0,0,1-4.71-2.92V38.989c0-4.475,3.765-8.468,8.455-9.387l4.385,5.271L19.117,46.628a.7.7,0,0,0,.212.723L23.323,50.8a.694.694,0,0,0,.909,0l3.994-3.453a.7.7,0,0,0,.213-.723L24.966,34.872l4.375-5.261c4.506.909,8.464,4.748,8.464,9.377v7.933ZM27.7,29.416l-3.92,4.713-3.923-4.715ZM15.777,19.844a8,8,0,1,1,8,8A8.008,8.008,0,0,1,15.777,19.844Zm11.2,26.749-3.2,2.767-3.2-2.768,3.2-10.839ZM39.2,45.707V38.988c0-5.733-5.181-10.421-10.876-10.926a9.395,9.395,0,1,0-9.081,0c-5.9.5-10.879,5.393-10.879,10.929v6.718a22.387,22.387,0,1,1,30.835,0Zm25.948-8.141A23.777,23.777,0,1,0,88.92,61.344,23.8,23.8,0,0,0,65.143,37.566ZM79.17,78.778A22.446,22.446,0,0,1,74.52,81.67V70.648a.694.694,0,0,0-1.389,0v11.61a22.382,22.382,0,0,1-15.916.021V70.648a.694.694,0,0,0-1.389,0V81.7a22.421,22.421,0,0,1-4.71-2.919V70.846c0-4.475,3.764-8.469,8.455-9.387l4.384,5.27L60.484,78.485a.7.7,0,0,0,.212.723l3.994,3.454a.694.694,0,0,0,.909,0l3.993-3.453a.694.694,0,0,0,.212-.723L66.332,66.73l4.375-5.261c4.506.908,8.465,4.748,8.465,9.377v7.933ZM69.063,61.272l-3.92,4.714L61.22,61.27ZM57.142,51.7a8,8,0,1,1,8,8A8.008,8.008,0,0,1,57.142,51.7Zm11.2,26.748-3.2,2.768-3.2-2.768,3.2-10.839Zm12.217-.886V70.845c0-5.733-5.181-10.421-10.877-10.926a9.395,9.395,0,1,0-9.08,0c-5.9.5-10.879,5.391-10.879,10.929v6.718a22.389,22.389,0,1,1,30.835,0ZM30.69,71.915a15.755,15.755,0,0,1-13.6-13.234h-6.7A22.375,22.375,0,0,0,30.69,78.6v6.239l9.821-9.822L30.69,65.192Zm1.389-3.369,6.466,6.466L32.079,81.48V77.287A21.02,21.02,0,0,1,11.994,60.069h3.948A17.169,17.169,0,0,0,32.078,73.423V68.546ZM58.231,17.8a15.752,15.752,0,0,1,13.6,13.232h6.7a22.375,22.375,0,0,0-20.3-19.915V4.881L48.41,14.7l9.821,9.821Zm-1.389,3.367L50.376,14.7l6.466-6.467v4.193A21.022,21.022,0,0,1,76.927,29.645H72.979A17.168,17.168,0,0,0,56.843,16.293v4.876Z" transform="translate(0 -4.881)"/></g></g></svg>