<svg xmlns="http://www.w3.org/2000/svg" width="80" height="80" viewBox="0 0 80 80"><g transform="translate(-10.125 -10)"><path d="M89.125,88H85.25V82.265a5.75,5.75,0,1,0-2,0V88H76.824V11a1,1,0,0,0-1-1h-51.4a1,1,0,0,0-1,1V88H16.875V82.265a5.75,5.75,0,1,0-2,0V88h-3.75a1,1,0,0,0,0,2h78a1,1,0,0,0,0-2ZM80.5,76.608a3.75,3.75,0,1,1,3.75,3.75A3.754,3.754,0,0,1,80.5,76.608Zm-68.376,0a3.75,3.75,0,1,1,3.75,3.75A3.754,3.754,0,0,1,12.125,76.608ZM25.426,12h49.4V88H59.691V67.808a1,1,0,0,0-1-1H41.559a1,1,0,0,0-1,1V88H25.426Zm25.6,56.808h6.662V88H51.03ZM49.03,88H42.559V68.808H49.03Z"/><path d="M65.477,30.735a1,1,0,0,0,1-1v-9a1,1,0,0,0-2,0v9A1,1,0,0,0,65.477,30.735Z"/><path d="M55.081,30.735a1,1,0,0,0,1-1v-9a1,1,0,0,0-2,0v9A1,1,0,0,0,55.081,30.735Z"/><path d="M44.684,30.735a1,1,0,0,0,1-1v-9a1,1,0,0,0-2,0v9A1,1,0,0,0,44.684,30.735Z"/><path d="M34.287,19.739a1,1,0,0,0-1,1v9a1,1,0,0,0,2,0v-9A1,1,0,0,0,34.287,19.739Z"/><path d="M65.477,46.394a1,1,0,0,0,1-1v-9a1,1,0,0,0-2,0v9A1,1,0,0,0,65.477,46.394Z"/><path d="M55.081,46.394a1,1,0,0,0,1-1v-9a1,1,0,0,0-2,0v9A1,1,0,0,0,55.081,46.394Z"/><path d="M44.684,46.394a1,1,0,0,0,1-1v-9a1,1,0,0,0-2,0v9A1,1,0,0,0,44.684,46.394Z"/><path d="M34.287,35.4a1,1,0,0,0-1,1v9a1,1,0,0,0,2,0v-9A1,1,0,0,0,34.287,35.4Z"/><path d="M65.477,62.052a1,1,0,0,0,1-1v-9a1,1,0,0,0-2,0v9A1,1,0,0,0,65.477,62.052Z"/><path d="M55.081,62.052a1,1,0,0,0,1-1v-9a1,1,0,0,0-2,0v9A1,1,0,0,0,55.081,62.052Z"/><path d="M44.684,62.052a1,1,0,0,0,1-1v-9a1,1,0,0,0-2,0v9A1,1,0,0,0,44.684,62.052Z"/><path d="M34.287,51.057a1,1,0,0,0-1,1v9a1,1,0,1,0,2,0v-9A1,1,0,0,0,34.287,51.057Z"/></g></svg>