<svg xmlns="http://www.w3.org/2000/svg" width="80.51" height="80.51" viewBox="0 0 80.51 80.51"><g transform="translate(-16 -16)"><g transform="translate(16 16)"><path d="M29.418,362.837A13.418,13.418,0,1,0,16,349.418a13.418,13.418,0,0,0,13.418,13.418Zm-4.025-3.47v-1.9a4.025,4.025,0,1,1,8.051,0v1.9a10.7,10.7,0,0,1-8.051,0Zm1.342-11.29a2.684,2.684,0,1,1,2.684,2.684A2.684,2.684,0,0,1,26.735,348.077Zm2.684-9.393a10.729,10.729,0,0,1,6.709,19.106v-.32a6.708,6.708,0,0,0-2.957-5.56,5.367,5.367,0,1,0-7.5,0,6.708,6.708,0,0,0-2.957,5.56v.32a10.729,10.729,0,0,1,6.709-19.106Z" transform="translate(-16 -282.327)"/><path d="M349.418,336a13.418,13.418,0,1,0,13.418,13.418A13.418,13.418,0,0,0,349.418,336Zm-4.025,23.367v-1.9a4.025,4.025,0,1,1,8.051,0v1.9A10.7,10.7,0,0,1,345.393,359.367Zm1.342-11.29a2.684,2.684,0,1,1,2.684,2.684A2.684,2.684,0,0,1,346.735,348.076Zm9.393,9.713v-.32a6.708,6.708,0,0,0-2.957-5.56,5.367,5.367,0,1,0-7.5,0,6.708,6.708,0,0,0-2.957,5.56v.32a10.735,10.735,0,1,1,13.418,0Z" transform="translate(-282.327 -282.327)"/><path d="M29.418,16A13.418,13.418,0,1,0,42.837,29.418,13.418,13.418,0,0,0,29.418,16ZM25.393,39.367v-1.9a4.025,4.025,0,1,1,8.051,0v1.9a10.7,10.7,0,0,1-8.051,0Zm1.342-11.29a2.684,2.684,0,1,1,2.684,2.684A2.684,2.684,0,0,1,26.735,28.076Zm9.393,9.713v-.32a6.708,6.708,0,0,0-2.957-5.56,5.367,5.367,0,1,0-7.5,0,6.708,6.708,0,0,0-2.957,5.56v.32a10.735,10.735,0,1,1,13.418,0Z" transform="translate(-16 -16)"/><path d="M349.418,16a13.418,13.418,0,1,0,13.418,13.418A13.418,13.418,0,0,0,349.418,16Zm-4.025,23.367v-1.9a4.025,4.025,0,1,1,8.051,0v1.9A10.7,10.7,0,0,1,345.393,39.367Zm1.342-11.29a2.684,2.684,0,1,1,2.684,2.684A2.684,2.684,0,0,1,346.735,28.076Zm9.393,9.713v-.32a6.708,6.708,0,0,0-2.957-5.56,5.367,5.367,0,1,0-7.5,0,6.708,6.708,0,0,0-2.957,5.56v.32a10.735,10.735,0,1,1,13.418,0Z" transform="translate(-282.327 -16)"/><rect width="24.153" height="2.684" transform="translate(32.204 33.546)"/><rect width="2.684" height="2.684" transform="translate(26.837 33.546)"/><rect width="32.204" height="2.684" transform="translate(24.153 38.913)"/><rect width="32.204" height="2.684" transform="translate(24.153 44.28)"/><path d="M128.793,152.142a1.342,1.342,0,0,0-.742,1.2v2.684h-4.025A4.03,4.03,0,0,0,120,160.051v18.786a4.03,4.03,0,0,0,4.025,4.026h4.025v2.684a1.342,1.342,0,0,0,2.147,1.073l5.01-3.757h15.207l5.01,3.757a1.342,1.342,0,0,0,2.147-1.073v-2.684H161.6a4.03,4.03,0,0,0,4.026-4.026V160.051a4.03,4.03,0,0,0-4.026-4.025h-4.025v-2.684a1.342,1.342,0,0,0-2.147-1.073l-5.01,3.757H135.207l-5.01-3.757A1.342,1.342,0,0,0,128.793,152.142Zm1.942,5.226v-1.342l3.22,2.415a1.342,1.342,0,0,0,.805.268h16.1a1.342,1.342,0,0,0,.805-.268l3.22-2.415v1.342a1.342,1.342,0,0,0,1.342,1.342H161.6a1.343,1.343,0,0,1,1.342,1.342v18.786a1.343,1.343,0,0,1-1.342,1.342h-5.367a1.342,1.342,0,0,0-1.342,1.342v1.342l-3.22-2.415a1.342,1.342,0,0,0-.805-.268h-16.1a1.342,1.342,0,0,0-.805.268l-3.22,2.415V181.52a1.342,1.342,0,0,0-1.342-1.342h-5.367a1.343,1.343,0,0,1-1.342-1.342V160.051a1.343,1.343,0,0,1,1.342-1.342h5.367A1.342,1.342,0,0,0,130.735,157.367Z" transform="translate(-102.556 -129.189)"/><path d="M302.675,62.3l-.669,2.6c.864.222,1.729.486,2.571.784l.894-2.53C304.556,62.829,303.615,62.542,302.675,62.3Z" transform="translate(-254.034 -54.534)"/><path d="M205.661,59.11l.444-2.647A33.874,33.874,0,0,0,200.516,56h0a33.464,33.464,0,0,0-11.182,1.909l.894,2.53a30.788,30.788,0,0,1,10.287-1.756,31.2,31.2,0,0,1,5.149.427Z" transform="translate(-160.261 -49.291)"/><path d="M63.153,189.334c-.324.916-.611,1.857-.852,2.8l2.6.669c.222-.864.486-1.729.784-2.571Z" transform="translate(-54.535 -160.261)"/><path d="M56.464,222.676A33.873,33.873,0,0,0,56,228.265a33.464,33.464,0,0,0,1.909,11.182l2.53-.894a30.788,30.788,0,0,1-1.756-10.287,31.2,31.2,0,0,1,.427-5.149Z" transform="translate(-49.291 -188.01)"/><path d="M190.228,429.532l-.894,2.53c.916.324,1.857.611,2.8.852l.669-2.6C191.935,430.093,191.07,429.83,190.228,429.532Z" transform="translate(-160.261 -360.171)"/><path d="M238.553,429.532a30.788,30.788,0,0,1-10.287,1.756,31.2,31.2,0,0,1-5.148-.427l-.441,2.647a33.887,33.887,0,0,0,5.589.464,33.466,33.466,0,0,0,11.182-1.909Z" transform="translate(-188.01 -360.171)"/><path d="M432.058,305.471c.324-.916.611-1.857.852-2.8l-2.6-.669c-.222.864-.486,1.729-.784,2.571Z" transform="translate(-360.167 -254.034)"/><path d="M433.508,206.105a33.887,33.887,0,0,0,.464-5.589,33.466,33.466,0,0,0-1.909-11.182l-2.53.894a30.788,30.788,0,0,1,1.756,10.287,31.2,31.2,0,0,1-.427,5.149Z" transform="translate(-360.171 -160.261)"/></g></g></svg>