<svg xmlns="http://www.w3.org/2000/svg" width="81.683" height="80" viewBox="0 0 81.683 80"><g transform="translate(-5 -5.927)"><g transform="translate(5 5.927)"><path d="M85.627,25.445H48.274a4.632,4.632,0,0,0-4.627,4.627V56.84a4.632,4.632,0,0,0,4.627,4.627h29l8.883,8.882a2.4,2.4,0,0,0,4.093-1.7V30.072A4.632,4.632,0,0,0,85.627,25.445Zm2.035,42.738-8.608-8.608a2.384,2.384,0,0,0-1.7-.7H48.274a2.037,2.037,0,0,1-2.035-2.035V30.071a2.037,2.037,0,0,1,2.035-2.034H85.627a2.037,2.037,0,0,1,2.035,2.034Z" transform="translate(-8.572 -7.731)"/><path d="M11.474,51.342a2.4,2.4,0,0,0,2.623-.516l8.884-8.883H36.65V39.351H22.893a2.382,2.382,0,0,0-1.694.708l-8.607,8.606V10.55a2.033,2.033,0,0,1,2.031-2.03H51.979a2.033,2.033,0,0,1,2.03,2.03v9.2H56.6v-9.2a4.628,4.628,0,0,0-4.622-4.623H14.624A4.629,4.629,0,0,0,10,10.55V49.133A2.388,2.388,0,0,0,11.474,51.342Z" transform="translate(-5.462 -5.927)"/><path d="M12.11,67.4a8.767,8.767,0,1,0,8.767-8.767A8.767,8.767,0,0,0,12.11,67.4Zm14.942,0a6.175,6.175,0,1,1-6.174-6.174A6.182,6.182,0,0,1,27.052,67.4Z" transform="translate(-5.657 -10.797)"/><path d="M7.592,92.908a8.861,8.861,0,0,1,8.852-8.851H24a8.861,8.861,0,0,1,8.852,8.851H35.44A11.457,11.457,0,0,0,24,81.464H16.444A11.456,11.456,0,0,0,5,92.908H7.592Z" transform="translate(-5 -12.908)"/><path d="M67.307,49.842a2.929,2.929,0,0,0-2.02.714,2.279,2.279,0,0,0-.805,1.777,2.387,2.387,0,0,0,.805,1.792,3.168,3.168,0,0,0,4.025.015,2.351,2.351,0,0,0,.775-1.808,2.268,2.268,0,0,0-.79-1.777A2.86,2.86,0,0,0,67.307,49.842Z" transform="translate(-10.497 -9.985)"/><path d="M71.941,31.871a6.031,6.031,0,0,0-2.119-.979,10.554,10.554,0,0,0-2.627-.311,11.589,11.589,0,0,0-2.855.349,9.492,9.492,0,0,0-2.552,1.048V36.55a8.055,8.055,0,0,1,2.415-1.5,6.8,6.8,0,0,1,2.46-.494,2.821,2.821,0,0,1,.995.167,2.275,2.275,0,0,1,.76.456,1.947,1.947,0,0,1,.478.692,2.25,2.25,0,0,1,.167.873,3.1,3.1,0,0,1-.152.995,3.258,3.258,0,0,1-.456.866,6.34,6.34,0,0,1-.737.835q-.433.418-1.01.9a8.7,8.7,0,0,0-.957.919,5.131,5.131,0,0,0-.683.972,4.472,4.472,0,0,0-.41,1.086,5.563,5.563,0,0,0-.137,1.276,5.632,5.632,0,0,0,.084.934,4.633,4.633,0,0,0,.235.889h4a2.188,2.188,0,0,1-.266-.638,2.93,2.93,0,0,1-.1-.744,3.03,3.03,0,0,1,.137-.949,2.876,2.876,0,0,1,.4-.79,5.3,5.3,0,0,1,.668-.751q.4-.38.934-.82.79-.653,1.4-1.268a7.165,7.165,0,0,0,1.017-1.283,5.643,5.643,0,0,0,.623-1.42,6.169,6.169,0,0,0,.212-1.678,5.636,5.636,0,0,0-.509-2.5A4.609,4.609,0,0,0,71.941,31.871Z" transform="translate(-10.248 -8.205)"/></g></g></svg>