<svg xmlns="http://www.w3.org/2000/svg" width="20" height="29.086" viewBox="0 0 20 29.086"><defs><style>.a{fill:#1b2f3f;}</style></defs><g transform="translate(-79.968 0.001)"><path class="a" d="M89.968,29.085a1.737,1.737,0,0,1-1.521-.881l-.01-.017-7.212-13.2A10.126,10.126,0,0,1,81.357,4.98,9.87,9.87,0,0,1,89.744,0c.149,0,.3,0,.448,0A9.87,9.87,0,0,1,98.578,4.98a10.126,10.126,0,0,1,.132,10.005L91.5,28.187l-.01.017a1.737,1.737,0,0,1-1.521.881Zm0-27.268-.187,0A8.066,8.066,0,0,0,82.93,5.892a8.321,8.321,0,0,0-.11,8.222L89.968,27.2l7.148-13.083a8.321,8.321,0,0,0-.11-8.222,8.066,8.066,0,0,0-6.851-4.072l-.187,0Z"/><path class="a" d="M188.09,96.18a4.09,4.09,0,1,1,4.09-4.09A4.095,4.095,0,0,1,188.09,96.18Zm0-6.362a2.272,2.272,0,1,0,2.272,2.272A2.275,2.275,0,0,0,188.09,89.818Z" transform="translate(-98.123 -83.001)"/></g></svg>