<svg xmlns="http://www.w3.org/2000/svg" width="23.925" height="30" viewBox="0 0 23.925 30"><g transform="translate(0.3 -0.143)"><g transform="translate(-0.3 0.143)"><path d="M4.443,20.189a19.421,19.421,0,0,1-1.565-8.87A13.929,13.929,0,0,1,5.446,3.211a8.71,8.71,0,0,1,1.2-1.224A7.248,7.248,0,0,1,11.988.16a8.635,8.635,0,0,1,4.8,1.947,8.356,8.356,0,0,1,1.124,1.1l.02.02a15.032,15.032,0,0,1,2.749,8.208,19.118,19.118,0,0,1-1.284,8.911,7.948,7.948,0,0,1,2.95,2.468c1.264,1.786,1.505,4.014,1.1,6.9a.476.476,0,0,1-.462.421H.489v-.02a.471.471,0,0,1-.462-.361c-.522-2.649-.442-4.656.4-6.241A7.831,7.831,0,0,1,4.443,20.189Zm2.89-9.753h-.08a.713.713,0,0,1-.2-.04v.06A7.09,7.09,0,0,0,8.537,14.75a4.809,4.809,0,0,0,1.224,1.164l.02.02a3.524,3.524,0,0,0,1.866.582h0A4.355,4.355,0,0,0,14.9,14.991a5.545,5.545,0,0,0,1.365-3.713V10.134l-.02.02h0a.443.443,0,0,1-.421.281H15.7a.556.556,0,0,1,.02.181,1.8,1.8,0,0,1-.542,1.3,1.82,1.82,0,0,1-1.284.522,1.783,1.783,0,0,1-1.806-1.826,1.726,1.726,0,0,1,.02-.321,1.3,1.3,0,0,0-.181-.161.705.705,0,0,0-.4-.1.667.667,0,0,0-.4.1.786.786,0,0,0-.2.161,1.756,1.756,0,0,1,.04.321,1.8,1.8,0,0,1-.542,1.3,1.842,1.842,0,0,1-2.569,0,1.886,1.886,0,0,1-.542-1.3C7.312,10.556,7.332,10.5,7.332,10.435Zm-1.1-1.425-.181-.381a.444.444,0,0,1,.2-.6.153.153,0,0,1,.1-.04c.08-.622.2-1.284.321-1.907A11.606,11.606,0,0,1,7.633,2.95a.475.475,0,0,1,.4-.261A.454.454,0,0,1,8.5,3.15,1.943,1.943,0,0,0,9.781,4.776a10.413,10.413,0,0,0,4.034.963h0c1.626,0,2.468.582,2.93,1.646a10.692,10.692,0,0,1,.442,3.893,6.579,6.579,0,0,1-1.606,4.335,6.731,6.731,0,0,1-.983.863,4.279,4.279,0,0,0,.14,1.2,2.084,2.084,0,0,0,.462.943.464.464,0,0,0,.14.14c.02.04.06.06.1.1a21.775,21.775,0,0,1,3.131,1.084,18.2,18.2,0,0,0,1.2-8.449c-.221-2.89-.983-5.78-2.549-7.706A7.9,7.9,0,0,0,16.2,2.809a7.514,7.514,0,0,0-4.275-1.746,6.44,6.44,0,0,0-4.7,1.585A11.664,11.664,0,0,0,6.148,3.773,13.141,13.141,0,0,0,3.78,11.339a18.168,18.168,0,0,0,1.505,8.509l.06-.02c.02,0,.04,0,.04-.02L8.2,18.784c.02-.02.02-.04.04-.04l.1-.1h0A3.007,3.007,0,0,0,8.918,17.6a3.307,3.307,0,0,0,.161-1.044,6.183,6.183,0,0,1-1.264-1.244,8.206,8.206,0,0,1-1.666-4.857C6.148,10.094,6.189,9.572,6.229,9.011Zm.943-.181.361.682h.161c.06-.06.1-.12.161-.181a1.842,1.842,0,0,1,2.569,0c.04.04.06.08.1.12a.61.61,0,0,1,.14-.1,1.6,1.6,0,0,1,.863-.241,1.58,1.58,0,0,1,.843.241.36.36,0,0,1,.14.1.532.532,0,0,0,.1-.12,1.857,1.857,0,0,1,1.284-.522,1.82,1.82,0,0,1,1.284.522,1.3,1.3,0,0,1,.161.181h.181l.522-1.244c0-.02.02-.04.02-.06a4.517,4.517,0,0,0-.161-.482c-.3-.7-.9-1.084-2.087-1.084h0A11.52,11.52,0,0,1,9.359,5.579,3.613,3.613,0,0,1,7.995,4.455c-.161.522-.3,1.144-.442,1.786C7.393,7.124,7.252,8.027,7.172,8.83Zm7.365,1.144a.893.893,0,0,0-.642-.261.928.928,0,0,0-.642.261.967.967,0,0,0-.261.642.978.978,0,0,0,.261.662.928.928,0,0,0,.642.261.893.893,0,0,0,.642-.261.9.9,0,0,0,0-1.3Zm-4.756,0a.893.893,0,0,0-.642-.261.928.928,0,0,0-.642.261.967.967,0,0,0-.261.642.978.978,0,0,0,.261.662.928.928,0,0,0,.642.261.893.893,0,0,0,.642-.261.978.978,0,0,0,.261-.662A.967.967,0,0,0,9.781,9.974Zm7.345,10.356a1.167,1.167,0,0,1,.3.9,1.206,1.206,0,0,1-.261.562,1.1,1.1,0,0,1-.341.261l-.662.341.421.462a1.42,1.42,0,0,1,.361.963,1.482,1.482,0,0,1-.421.923L12.149,29.22H22.585c.321-2.468.08-4.375-.983-5.88A8.951,8.951,0,0,0,17.126,20.329Zm-5.419,7.325,1-2.81a6.862,6.862,0,0,1-.9.08,6.02,6.02,0,0,1-1.024-.08Zm1.365-3.813,1.585-4.455a.927.927,0,0,0-.14-.14,3.176,3.176,0,0,1-.662-1.325,5.364,5.364,0,0,1-.14-.943,5.163,5.163,0,0,1-2.067.442h0a3.974,3.974,0,0,1-1.686-.361,3.853,3.853,0,0,1-.181.8,3.785,3.785,0,0,1-.763,1.385h0l-.06.06,1.485,4.536a5.944,5.944,0,0,0,1.365.181A5.173,5.173,0,0,0,13.072,23.841Zm3.392-2.87L15.4,20.028l-1.505,4.194a.423.423,0,0,1-.1.261l-.963,2.749,3.03-3.131a.483.483,0,0,0,.181-.321.419.419,0,0,0-.12-.3L15.1,22.6h0c-.02-.04-.04-.06-.06-.1a.46.46,0,0,1,.181-.622l1.184-.622a.277.277,0,0,0,.08-.06.152.152,0,0,0,.04-.08.181.181,0,0,0-.02-.1Zm-8.248-1-1.064.943-.04.04a.181.181,0,0,0-.02.1.152.152,0,0,0,.04.08c.02.04.06.04.08.06l1.184.622a.46.46,0,0,1,.181.622c-.02.04-.04.06-.06.1h0l-.823.883a.415.415,0,0,0-.1.3.518.518,0,0,0,.161.341l2.85,3.111-.923-2.79a.074.074,0,0,1-.02-.06Zm3.03,9.252L7.092,24.664a1.344,1.344,0,0,1-.4-.9,1.416,1.416,0,0,1,.341-.963l.421-.442L6.791,22a.837.837,0,0,1-.321-.261,1.07,1.07,0,0,1-.281-.562,1.189,1.189,0,0,1,.12-.642l.06-.12-.662.261h-.04c-2.268.863-3.713,1.886-4.435,3.271-.7,1.325-.783,3.01-.381,5.278Z" transform="translate(0.3 -0.143)"/></g></g></svg>