<svg xmlns="http://www.w3.org/2000/svg" width="25.156" height="24" viewBox="0 0 25.156 24"><g transform="translate(-0.656 -21.659)"><g transform="translate(6.278 26.704)"><path d="M143.2,144.093c-1.33,1.33-4.711.105-7.55-2.734s-4.064-6.22-2.734-7.55l1.378-1.378a.616.616,0,0,1,.873,0l1.409,1.409a.616.616,0,0,1,0,.873l-.957.957c-.741.741-.089,2.618,1.488,4.2s3.5,2.266,4.238,1.525l.952-.957a.616.616,0,0,1,.873,0l1.409,1.409a.616.616,0,0,1,0,.873Z" transform="translate(-131.605 -131.481)"/><path d="M128.661,129.678c-.032.026-.2.163-.089.084s-.079.047-.105.063a.469.469,0,0,1-.163.079c.084,0,.147-.047.058-.026-.047.011-.089.032-.131.042-.063.016-.126.032-.189.042-.221.047.121,0-.063.011a4.111,4.111,0,0,1-.51.005c-.074-.005-.152-.016-.226-.021.221.021-.063-.016-.116-.026a5.09,5.09,0,0,1-.557-.142q-.276-.087-.552-.189c-.042-.016-.089-.037-.131-.053.137.058-.011-.005-.047-.021-.116-.053-.226-.105-.336-.158a11.732,11.732,0,0,1-2.387-1.593,16.058,16.058,0,0,1-1.225-1.167,14.237,14.237,0,0,1-.988-1.162,12.6,12.6,0,0,1-.8-1.225c-.11-.189-.216-.389-.31-.584-.042-.089-.089-.179-.126-.273.005.011-.095-.21-.047-.105.037.089-.037-.089-.042-.105a6.122,6.122,0,0,1-.336-1.136c-.011-.068-.042-.268-.021-.084-.011-.084-.021-.168-.026-.258-.011-.168.005-.336.005-.5,0-.074-.032-.079-.011.058a.3.3,0,0,1,.016-.095c.016-.068.032-.142.053-.21a.574.574,0,0,0,.026-.089c.042-.152-.005.047-.021.037a1.052,1.052,0,0,1,.105-.2.579.579,0,0,0,.047-.074c.047-.089-.037.011-.042.053.011-.042.089-.105.121-.131l.105-.105,1.13-1.13c.021-.021.126-.1.131-.131,0,0-.074.032-.105.047.053-.021.126-.005-.011-.005-.084-.016-.1-.021-.042-.005s.042.011-.032-.011c-.005-.026-.063-.058.021.032s.158.158.231.231l.62.62a3.34,3.34,0,0,0,.452.452s.026.032.032.032c-.026.005-.053-.105-.053-.11.021.042.016.137.005-.011-.005-.053.053-.131-.005-.011-.005.011.037-.121.053-.11-.005,0-.037.037-.042.042-.2.173-.379.379-.563.563-.137.137-.284.268-.41.415a1.976,1.976,0,0,0-.468,1.178,4.257,4.257,0,0,0,.747,2.471,8.863,8.863,0,0,0,2.324,2.5c1.2.894,3.144,1.782,4.4.52l.6-.6c.068-.068.142-.131.205-.205a.317.317,0,0,0,.042-.042c.005.021-.105.053-.11.053.105-.047.016-.026-.047-.011-.011,0-.026-.005-.037-.005h0c0-.005-.047-.032-.047-.032l.032.032a1.36,1.36,0,0,0,.195.195l.6.6c.173.173.336.352.515.515.068.063.058.084.016-.021-.037-.089-.005.158-.005-.042,0-.053.053-.126-.005-.011.016-.037.063-.1.042-.1s-.105.105-.126.126l-.279.279-.641.641c-.089.1-.2.205-.3.31a.788.788,0,0,0,1.115,1.115l1.041-1.041c.126-.126.263-.252.384-.389a1.431,1.431,0,0,0-.047-1.935c-.337-.358-.694-.694-1.041-1.041-.121-.121-.237-.247-.363-.363a1.431,1.431,0,0,0-1.935-.047c-.352.31-.678.662-1,1-.026.026-.137.1-.026.032s-.016.005-.032.011c-.105.042.068.005.063-.021a1.11,1.11,0,0,1-.226.063c-.005-.011.216-.011.058-.011-.053,0-.105.005-.158.005a.774.774,0,0,1-.11-.005c-.016,0-.195-.026-.068-.005s-.063-.016-.074-.016c-.042-.011-.084-.016-.121-.026q-.158-.039-.315-.095l-.131-.047c-.216-.079.131.068-.079-.032a6.927,6.927,0,0,1-.615-.331c-.216-.131-.473-.31-.61-.415a8.814,8.814,0,0,1-1.241-1.225,6.516,6.516,0,0,1-.384-.531,5.781,5.781,0,0,1-.379-.683,1.427,1.427,0,0,1-.058-.131c.058.137,0-.005-.011-.042-.032-.095-.068-.189-.095-.284s-.042-.184-.063-.273c-.011-.053-.016-.189,0,.005-.005-.058-.011-.11-.011-.168,0-.079.011-.158.005-.237-.005-.1-.063.184,0,.037.011-.026.016-.068.026-.089.047-.205-.063.105.021-.042s-.126.11.026-.037c.168-.163.331-.331.494-.494s.315-.3.463-.463a1.426,1.426,0,0,0,.047-1.935c-.326-.373-.7-.71-1.057-1.062-.131-.131-.258-.268-.394-.394a1.423,1.423,0,0,0-1.777-.174,9.065,9.065,0,0,0-1.188,1.146,3.832,3.832,0,0,0-.983,1.33,4.064,4.064,0,0,0-.037,2.324,9.031,9.031,0,0,0,1.146,2.645,15.315,15.315,0,0,0,4.905,4.932,9.316,9.316,0,0,0,2.624,1.167,4.157,4.157,0,0,0,2.35.011,2.693,2.693,0,0,0,.994-.6.8.8,0,0,0,0-1.115A.808.808,0,0,0,128.661,129.678Z" transform="translate(-117.621 -117.624)"/></g><g transform="translate(0.656 21.658)"><g transform="translate(0 0)"><path d="M15.683,42.433a12.17,12.17,0,0,0,7.135,3.176,11.958,11.958,0,0,0,6.688-1.362A12,12,0,1,0,12.35,37.034a12.756,12.756,0,0,0,.778,1.977v-.794c-.678,1.3-1.356,2.6-2.035,3.906-.1.189-.195.373-.294.563a.8.8,0,0,0,.889,1.157l4.169-1.057c.195-.047.394-.1.589-.147a.791.791,0,1,0-.421-1.525l-4.169,1.057c-.195.047-.394.1-.589.147l.889,1.157c.615-1.157,1.22-2.319,1.824-3.486.137-.258.268-.515.4-.773.032-.058.063-.121.095-.179a1.233,1.233,0,0,0,.053-.116,1.108,1.108,0,0,0-.158-.946,10.408,10.408,0,0,1-.931-4.316c0-.3.011-.615.037-.92.011-.147.026-.289.042-.436l.016-.11c0,.011-.016.126-.005.032s.026-.168.037-.247a11.313,11.313,0,0,1,.447-1.756l.142-.394c.026-.063.053-.131.079-.195.032-.084-.005.016-.011.026a1.345,1.345,0,0,1,.058-.126c.116-.263.247-.526.384-.783A11.016,11.016,0,0,1,15.6,27.3c.053-.074-.011.011-.016.021l.063-.079.131-.163c.095-.116.195-.226.294-.342.189-.216.389-.421.6-.62s.442-.4.673-.594l.163-.131c.068-.058-.016.011-.021.016.026-.021.053-.042.084-.063.121-.089.242-.179.363-.263a11.8,11.8,0,0,1,1.5-.868l.379-.174c.137-.063-.074.026.068-.026.074-.032.152-.058.226-.089.273-.105.552-.2.836-.279s.573-.152.862-.216c.152-.032.3-.058.457-.084l.216-.032c-.147.021.063-.005.116-.016a11.27,11.27,0,0,1,1.835-.058c.3.016.6.042.91.079-.137-.016.026.005.074.011.074.011.142.021.21.037.152.026.3.058.457.089a11.158,11.158,0,0,1,1.688.515c.032.011.2.079.131.053s.1.042.131.058c.147.068.294.137.442.21.258.131.51.268.762.415s.489.3.726.473l.168.121c.026.021.168.126.11.084s.084.068.11.089c.063.053.126.1.184.152a11.039,11.039,0,0,1,1.225,1.2l.268.315.131.163c-.089-.11.037.053.063.089.174.231.331.468.484.715s.31.515.447.783c.063.126.126.247.184.373.032.063.058.126.089.189.016.032.026.063.042.095.005.016.063.147.026.068s.042.105.053.131c.026.063.053.131.074.195.053.142.105.289.152.431.089.279.174.563.242.852s.126.584.174.878c.005.047.032.216.011.074.011.074.016.142.026.216.016.158.032.315.042.473a11.778,11.778,0,0,1-.026,1.877c-.005.074-.016.142-.021.216-.005.053-.032.216-.011.079-.021.152-.047.31-.074.463-.053.294-.121.584-.2.867s-.163.563-.263.841c-.047.131-.1.263-.147.394-.011.032-.026.063-.042.1.005-.011.047-.11.011-.026s-.063.147-.1.221a10.9,10.9,0,0,1-.841,1.514c-.074.116-.152.231-.237.342l-.121.168c-.021.026-.042.053-.063.084-.074.095.074-.089-.005.005-.184.237-.379.463-.584.683a11.607,11.607,0,0,1-1.262,1.172l-.079.063c.011-.005.095-.074.021-.016-.058.042-.11.084-.168.121-.121.089-.242.173-.368.258-.242.163-.484.31-.736.452s-.51.273-.773.394c-.063.032-.126.058-.189.084-.042.021-.195.079-.068.032-.142.058-.284.11-.426.163a11.232,11.232,0,0,1-1.74.478c-.142.026-.284.047-.426.074s.079-.005-.079.011c-.084.011-.168.021-.252.026-.3.032-.61.047-.915.053-.352.005-.7,0-1.052-.026-.174-.011-.347-.032-.515-.047-.095-.011-.021,0-.005,0a1.053,1.053,0,0,1-.126-.021l-.294-.047a10.124,10.124,0,0,1-3.8-1.462c-.279-.174-.547-.363-.81-.563-.074-.053-.016-.016,0,0l-.095-.079-.189-.158c-.137-.116-.268-.231-.4-.352a.794.794,0,0,0-1.12,1.125Z" transform="translate(-10.704 -21.658)"/></g></g></g></svg>