<svg xmlns="http://www.w3.org/2000/svg" xmlns:xlink="http://www.w3.org/1999/xlink" width="737.262" height="528.235" viewBox="0 0 737.262 528.235">
	<defs>
		<style>
			.a,.aa,.ab,.ak,.l,.m,.n,.p,.r,.v,.z{fill:none;}.b{fill:#3f3d56;}.aa,.aj,.c,.f,.m,.q{isolation:isolate;}.d,.f{fill:#e8e8e8;}.e{opacity:0.8;}.g{opacity:0.5;}.h{fill:#ffbd39;}.i{fill:#fd9c87;}.j{fill:#fff;}.k{fill:#4c506d;}.l,.z{stroke:#4c506d;}.aa,.ab,.l,.m,.v,.z{stroke-miterlimit:10;}.l{stroke-width:0.897px;}.m{stroke:#e8e8e8;stroke-width:1.205px;}.n,.p{stroke:#fff;}.ak,.n,.p,.r{stroke-linecap:round;stroke-linejoin:round;}.n{stroke-width:1.071px;}.o{fill:#eda57e;}.p{stroke-width:0.947px;}.ag,.q{opacity:0.07;}.r{stroke:#101010;stroke-width:0.531px;}.s{fill:#ecc63b;}.t{fill:#e8ae37;}.u{fill:#f0d477;}.v{stroke:#e39724;stroke-width:0.904px;}.w{fill:#f7af81;}.x{fill:#2a2d38;}.y{fill:#e07243;}.z{stroke-width:0.944px;}.aa{stroke:#1b2f3f;}.aa,.ab{stroke-width:6.023px;}.aa,.aj{opacity:0.1;}.ab{stroke:#e9ebec;}.ac{clip-path:url(#a);}.ad{clip-path:url(#b);}.ae{clip-path:url(#c);}.af{clip-path:url(#d);}.ah{clip-path:url(#h);}.ai{clip-path:url(#i);}.ak{stroke:#000;stroke-width:2.409px;}
		</style>
		<clipPath id="a">
			<path class="a" d="M721.078,325.022l-12.243,33.262L706.712,374.5l10.308-9.034c.571-.482,1.709-3.046,2.318-4.4l6.165-17.3,4.546-27.589s-6.92-12.5-15.068-27.174ZM714.98,289l-.493-2.91-1.238-.22,1.73,3.146m-41.508-83.835a21.919,21.919,0,0,0-5.794.147c-.587.105-2.344,3.8-3.6,6.449-1.6,3.361-1.924,8.761-1.924,12.216,0,4.331,4.32,9.171,9.658,12.583,2.365,1.521.891,9.437-.347,10.2s-24.013,17.6-24.013,17.6l-2.375,13.312-13.4,74.1-4.608,5.579a4.882,4.882,0,0,0-1.526,2.731c-.3,1.662-.383,4.426,1.442,5.044,3.911,1.332,10.675,2.37,11.765,1.226,8.158-8.541-.12-2.788-1.735-4.33l3.6-9.081-5.2-5.835,4.87-2.149,13.579-69.731,59.386,10.638c-10.569-19.1-22.4-40.549-23.461-42.776a8.387,8.387,0,0,1-.634-5.841,37.011,37.011,0,0,1,3.145-7.8c.913-1.322,1.411-3.822,1.714-5.243s.267-.975-1,.268c-.346.336-1.437.394-1.93-1.825s-7.047-5.332-10.25-8.043c0,0-3.408-.876-6.815-2.045" transform="translate(-625.373 -205.058)" />
		</clipPath>
		<clipPath id="b">
			<path class="a" d="M691.307,195.223c1.153.86,4.472,3.969,5.7,4.95,1.342,1.09,2.149,2.579,3.334,4.52a45.807,45.807,0,0,1,2.008,4.939c2.491,6.375.037,9.154-1.9,13.674-2.674,6.228-8.745,7.188-9.223,8.085-4.807-1.573-5.364-.981-7.482-.31-2.694-1.793-3.875-4.241-5.316-5.5.887-1.263,1.284-11.959-3.67-6.722,1.956-2.06-3.281-8.472-4.382-9.269s-2.286-1.693-2.186-2.144c.576-2.58-3.67-2.155.084-4.9,3.014-2.2,4.162-7.219,8.111-7.618,2.448-.246,5.573-.524,8.043-.891,1.766-.268,3.182.581,4.692.76a5.567,5.567,0,0,1,2.275.765" transform="translate(-666.713 -193.987)" />
		</clipPath>
		<clipPath id="c">
			<path class="a" d="M637.445,421.247c-.524,4.6,2.973,28.658,2.973,33.251s8.594,53.6,8.594,53.6l13.578-.613s-2.705-72.179-2.438-75.692,15.142-45.414,15.142-45.414,1.08,11.083,1.08,14.6,4.116,105.566,4.116,105.566h11.839l16.824-150.331-.32-2.894L646.746,344.7s-8.756,71.954-9.3,76.547" transform="translate(-637.392 -344.7)" />
		</clipPath>
		<clipPath id="d">
			<path class="a" d="M653.833,250.18c-7.141,4.452-10.638,9.862-12,14.33-3.513,11.534-1.516,9.929-5.018,24.41-4.415,18.24-3.224,29.528-3.759,35.977-.613,7.445-4.718,28.2-1.651,28.674,1.573.241,1.316,1,8.263.3,1.787-.173,5.709-15.373,5.709-15.373s-.241,9.883,1.688,10.848c1.7.849,21.627,6.658,26.445,8.5a102.983,102.983,0,0,0,10.559,1.048l25.092-3.486s-.351-47.537.084-55.481c.435-7.775-.524-12.112.839-10,1.542,2.349,8.1,23.714,8.1,27.331s-7.251,35.216-7.251,35.216l9.642,5.306s13.013-34.708,13.737-39.29.965-6.989-1.2-11.566-13.983-46.037-13.983-46.037-2.621-3.827-9.883-7.713c-5.012-1.814-15.151-7.707-22.853-4.97a89.573,89.573,0,0,1-18.214.582,33.086,33.086,0,0,0-10.69-.253" transform="translate(-630.283 -247.491)" />
		</clipPath>
		<clipPath id="h">
			<rect class="a" width="29.151" height="146.734" />
		</clipPath>
		<clipPath id="i">
			<rect class="a" width="79.813" height="34.661" transform="translate(0 79.326) rotate(-83.67)" />
		</clipPath>
	</defs>
	<g transform="translate(1.205 0.215)">
		<g transform="translate(509.379 301.282)">
			<g transform="translate(5.888 16.472)">
				<g transform="translate(0 40.909)">
					<rect class="b" width="11.039" height="11.558" />
				</g>
				<g transform="translate(14.881 18.77)">
					<rect class="b" width="11.039" height="33.698" />
				</g>
				<g class="c" transform="translate(29.762)">
					<rect class="d" width="11.039" height="52.467" />
				</g>
				<g transform="translate(44.642 11.311)">
					<rect class="b" width="11.039" height="41.156" />
				</g>
			</g>
			<g transform="translate(0 73.591)">
				<rect class="b" width="67.459" height="1.421" />
			</g>
			<g class="e" transform="translate(35.65 7.997)">
				<rect class="f" width="11.039" height="6.699" />
			</g>
			<g class="c" transform="translate(50.531 12.06)">
				<rect class="d" width="11.039" height="6.699" />
			</g>
			<g class="c" transform="translate(20.769 19.437)">
				<rect class="d" width="11.039" height="6.699" />
			</g>
			<g transform="translate(5.889 19.857)">
				<rect class="b" width="11.039" height="6.699" transform="translate(44.642)" />
				<rect class="b" width="11.039" height="6.699" transform="translate(14.881 7.408)" />
				<rect class="b" width="11.039" height="6.699" transform="translate(0 29.357)" />
			</g>
			<g class="c" transform="translate(5.888 40.498)">
				<rect class="d" width="11.039" height="6.699" />
			</g>
			<g class="g" transform="translate(35.65)">
				<rect class="f" width="11.039" height="6.699" />
			</g>
		</g>
		<g transform="translate(47.261 289.297)">
			<path class="f" d="M314.783,432.244H50.421a3.252,3.252,0,0,1-3.252-3.252V301.451H318.036V428.992A3.253,3.253,0,0,1,314.783,432.244Z" transform="translate(-47.169 -288.716)" />
			<path class="h" d="M318.036,301.51H47.169v-3.722a9.046,9.046,0,0,1,9.047-9.047H308.988a9.047,9.047,0,0,1,9.048,9.047Z" transform="translate(-47.169 -288.741)" />
			<g transform="translate(14.775 4.382)">
				<circle class="i" cx="2.205" cy="2.205" r="2.205" transform="translate(0 0)" />
				<circle class="j" cx="2.205" cy="2.205" r="2.205" transform="translate(9.831 0)" />
				<path class="j" d="M85.949,295.319a2.205,2.205,0,1,1-2.205-2.205A2.205,2.205,0,0,1,85.949,295.319Z" transform="translate(-61.877 -293.114)" />
			</g>
		</g>
		<g transform="translate(91.318 311.289)">
			<path class="h" d="M276.328,311.858a3.2,3.2,0,0,0-2.742-1.157l-17.5,1.48a3.2,3.2,0,0,0-2.169,5.263l3.7,4.358-26.493,19.818-9.838-10.754a3.842,3.842,0,0,0-5.093-.514L160.32,370.966l-15.041-10.6a3.841,3.841,0,0,0-4.64.161l-42.8,34.861a3.841,3.841,0,0,0,4.852,5.957l40.538-33.021,14.908,10.509a3.842,3.842,0,0,0,4.472-.033l55.324-40.211,9.87,10.788a3.841,3.841,0,0,0,5.136.484l29.664-22.19,4.076,4.8a3.2,3.2,0,0,0,5.517-1.19l4.733-16.5A3.2,3.2,0,0,0,276.328,311.858Z" transform="translate(-91.131 -310.69)" />
			<rect class="k" width="14.562" height="24.855" transform="translate(35.849 79.167)" />
			<rect class="k" width="14.562" height="17.808" transform="translate(57.22 86.213)" />
			<rect class="k" width="14.562" height="31.582" transform="translate(78.591 72.44)" />
			<rect class="k" width="14.562" height="36.895" transform="translate(99.962 67.127)" />
			<rect class="k" width="14.562" height="50.994" transform="translate(121.333 53.028)" />
			<rect class="k" width="14.562" height="36.622" transform="translate(142.704 67.4)" />
			<path class="l" d="M91.141,316.043V414.6H283.08" transform="translate(-91.141 -310.68)" />
		</g>
		<g transform="translate(6.482 293.913)">
			<g transform="translate(0 39.54)">
				<g transform="translate(0 0)">
					<rect class="k" width="59.251" height="19.796" rx="3.404" transform="translate(59.251 19.796) rotate(180)" />
					<g transform="translate(11.604 7.687)">
						<line class="m" x2="38.812" />
						<line class="m" x2="11.424" transform="translate(0 4.422)" />
					</g>
				</g>
				<path class="k" d="M58.587,349.939v8.953l-11.413-8.953Z" transform="translate(-6.39 -332.777)" />
			</g>
			<g transform="translate(187.331)">
				<rect class="n" width="7.154" height="7.154" />
				<line class="n" x2="13.868" transform="translate(12.334 3.577)" />
				<g transform="translate(0 11.929)">
					<rect class="n" width="7.154" height="7.154" />
				</g>
				<g transform="translate(0 23.857)">
					<rect class="n" width="7.154" height="7.154" />
				</g>
			</g>
			<g transform="translate(281.861 49.542)">
				<g transform="translate(0 0)">
					<circle class="k" cx="23.724" cy="23.724" r="23.724" transform="translate(0 17.775) rotate(-22.001)" />
				</g>
				<g transform="translate(16.06 20.553)">
					<g transform="translate(4.726)">
						<rect class="f" width="4.585" height="7.858" transform="translate(0 9.859)" />
						<rect class="f" width="4.585" height="17.717" transform="translate(7.02)" />
						<rect class="f" width="4.585" height="14.044" transform="translate(14.04 3.673)" />
					</g>
					<line class="m" x2="29.647" transform="translate(0 17.717)" />
				</g>
			</g>
		</g>
		<g transform="translate(148.661 91.026)">
			<g transform="translate(22.933 169.258)">
				<g transform="translate(53.281 200.005)">
					<path class="o" d="M192.519,508.811l2.31-49.41h19.224l-5.148,48.465Z" transform="translate(-184.501 -459.401)" />
					<g transform="translate(0 37.353)">
						<g transform="translate(0)">
							<path class="b" d="M191.5,501.232a17.316,17.316,0,0,0,15.606-.115s2.4-7.388,9.106-3.093c0,0,7.74,8.657,19.242,10.988,15.949,3.234,16.664,10.66,16.664,10.66h-67.6s2.38-10.083,3.446-16.449A2.574,2.574,0,0,1,191.5,501.232Z" transform="translate(-184.517 -496.681)" />
						</g>
						<rect class="j" width="67.601" height="7.388" transform="translate(0 22.99)" />
						<path class="p" d="M229.03,506.981s-2.562-.033-4.57,3.475" transform="translate(-184.439 -496.661)" />
						<path class="p" d="M225.783,505.247s-2.562-.033-4.569,3.475" transform="translate(-184.445 -496.665)" />
						<path class="p" d="M222.469,503.187s-2.562-.033-4.57,3.475" transform="translate(-184.452 -496.669)" />
					</g>
				</g>
				<g transform="translate(0 200.005)">
					<path class="o" d="M138.952,508.811l6.6-49.41h19.224l-9.433,48.465Z" transform="translate(-131.324 -459.401)" />
					<g transform="translate(0 37.353)">
						<g transform="translate(0)">
							<path class="b" d="M138.321,501.232a17.316,17.316,0,0,0,15.606-.115s2.4-7.388,9.106-3.093c0,0,7.74,8.657,19.242,10.988,15.949,3.234,16.664,10.66,16.664,10.66h-67.6s2.38-10.083,3.446-16.449A2.574,2.574,0,0,1,138.321,501.232Z" transform="translate(-131.339 -496.681)" />
						</g>
						<rect class="j" width="67.601" height="7.388" transform="translate(0 22.99)" />
						<path class="p" d="M175.852,506.981s-2.562-.033-4.57,3.475" transform="translate(-131.261 -496.661)" />
						<path class="p" d="M172.6,505.247s-2.562-.033-4.569,3.475" transform="translate(-131.268 -496.665)" />
						<path class="p" d="M169.291,503.187s-2.562-.033-4.57,3.475" transform="translate(-131.274 -496.669)" />
					</g>
				</g>
				<g transform="translate(3.39)">
					<path class="b" d="M224.763,259.784s2.133,6.562,3.03,37.045c.184,6.265.024,14.968-.393,21.22l-8.987,173.915-32.837-.127,8.488-177.018L166.658,491.749l-31.936-.818,29.29-222.427,31.4-2.89Z" transform="translate(-134.722 -259.784)" />
				</g>
			</g>
			<g transform="translate(0 49.645)">
				<g transform="translate(94.386)">
					<g transform="translate(0 29.64)">
						<path class="o" d="M213.455,197.276s26.244,22.084,51.326,33.385c3.02,1.361,10.235-.361,12.583-2.7h0a7.994,7.994,0,0,0-1.083-12.24l-46.024-35.517Z" transform="translate(-202.632 -169.966)" />
						<g class="c">
							<path class="d" d="M212.408,169.986s18.311,0,38.038,23.988l-16.591,23.989-31.2-14.834Z" transform="translate(-202.653 -169.986)" />
						</g>
					</g>
					<g transform="translate(55.768)">
						<g transform="translate(0 27.588)">
							<path class="o" d="M278.31,226.727l31.269-52.015-10.494-6.774L259.47,216.6c-3.152,2.809.739,10.333,4.432,13.6h0C265.916,232.028,274.179,233.189,278.31,226.727Z" transform="translate(-258.313 -167.938)" />
						</g>
						<g transform="translate(40.771)">
							<path class="o" d="M299.005,167.965l.955-8.191a3.754,3.754,0,0,1,2.657-3.083l8.7-2.564a2.825,2.825,0,0,1,3.26,1.325h0a2.825,2.825,0,0,1-1.119,3.872l-4.169,2.251s5.753,4.615.158,10.751Z" transform="translate(-299.005 -140.377)" />
							<path class="o" d="M302.61,156.718l11.407-15.43a2.178,2.178,0,0,1,3.215-.319h0a2.179,2.179,0,0,1,.47,2.617l-7.193,13.859Z" transform="translate(-298.998 -140.404)" />
							<path class="o" d="M311.737,152.96l4.36-1.463a3.019,3.019,0,0,1,2.632.578l1,.808a3.017,3.017,0,0,1,.752,3.8l-5.6,9.882-7.129-5.294Z" transform="translate(-298.988 -140.382)" />
							<path class="o" d="M319.666,154.421l1.621.007a2.965,2.965,0,0,1,2.073.857l1.336,1.32a2.963,2.963,0,0,1,.882,2.122h0a2.963,2.963,0,0,1-.6,1.779l-7.16,9.456-6.153-4.623Z" transform="translate(-298.98 -140.377)" />
							<path class="o" d="M322.249,158.18l1.622.007a2.966,2.966,0,0,1,2.073.857l1.336,1.32a2.966,2.966,0,0,1,.882,2.122h0a2.974,2.974,0,0,1-.6,1.779l-2.514,3.32a7.725,7.725,0,0,1-10.8,1.513h0Z" transform="translate(-298.975 -140.369)" />
							<path class="o" d="M321.639,169.513l-3.342,3.664a8.552,8.552,0,0,1-12.081.554l-7.21-5.777,5.627-8.085,7.078.029,6.155,4.3Z" transform="translate(-299.005 -140.366)" />
						</g>
					</g>
				</g>
				<g transform="translate(49.561 26.715)">
					<path class="f" d="M190.228,167.407A83.981,83.981,0,0,0,166.15,173a59.117,59.117,0,0,0-5.437,2.468c-5.344,2.8-1.513,8.837-.841,15.006l1.987,85.636s36.859,16.042,66.212-.8l2.67-82.085c.59-8.6-2.922-20.028-11.021-22.018a165.34,165.34,0,0,0-25.6-4.127Z" transform="translate(-157.915 -167.067)" />
					<g transform="translate(20.95)">
						<path class="o" d="M209.312,169.039a72.733,72.733,0,0,0-15.234-1.964,53.218,53.218,0,0,0-15.255,2.039l23.912,13.46C208.544,174.262,209.312,169.039,209.312,169.039Z" transform="translate(-178.824 -167.067)" />
						<path class="q" d="M229.835,216.02l.484-18.647a32.021,32.021,0,0,0-2.457,8.122c-1.135,6.074-1.636,15.385,1.455,27.355Z" transform="translate(-178.73 -167.008)" />
					</g>
				</g>
				<g transform="translate(0 31.76)">
					<g transform="translate(3.029 42.597)">
						<path class="o" d="M123.284,214.617l31.645,48.327-8.522,9.67-34.933-35.5Z" transform="translate(-111.474 -214.617)" />
						<path class="o" d="M183.938,265.073l-13.536-7.14,1.329-3.082a2.794,2.794,0,0,0-.73-3.22,2.554,2.554,0,0,0-3.271-.054L154.4,262.436l-8.059,10.107c7.312,6.5,12.09,6.414,14.845,5.157.322.11.638.232.965.33l11.25,3.347a2.109,2.109,0,0,0,2.761-1.038c.371-.761.5-1.982-1.664-3.122l2.165,1.14a2.192,2.192,0,0,0,2.893-1.129c.484-.993-.109-2.3-1.382-3.163l1.658.674a2.26,2.26,0,0,0,3.063-1.395,2.492,2.492,0,0,0-1.236-2.951l-2.392-1.256,2.841.714a2.462,2.462,0,0,0,3.2-1.667A2.7,2.7,0,0,0,183.938,265.073Z" transform="translate(-111.406 -214.546)" />
						<line class="r" x1="8.003" y1="3.917" transform="translate(60.575 51.025)" />
						<line class="r" x1="7.715" y1="3.334" transform="translate(58.711 56.038)" />
						<line class="r" x1="6.537" y1="2.674" transform="translate(57.268 60.289)" />
					</g>
					<path class="o" d="M167.675,201.364l-40.241,36a10.8,10.8,0,0,1-14.106,1.438h0a11.78,11.78,0,0,1-2.031-17.227l37.84-38.35a12.421,12.421,0,0,1,17.458-1.468h0A13.551,13.551,0,0,1,167.675,201.364Z" transform="translate(-108.451 -172.089)" />
					<g transform="translate(23.886)">
						<path class="f" d="M168.512,172.1s-16.161,3.266-36.222,28.165l19.164,21.585,24.2-17.974Z" transform="translate(-132.29 -172.102)" />
						<path class="q" d="M160.44,215.071l13.05-9.694s-12.964,9.174-12.561,30.757Z" transform="translate(-132.235 -172.037)" />
					</g>
				</g>
			</g>
			<g transform="translate(61.787)">
				<path d="M220.043,115.932c-1.187,11.979-11.522,25.531-24.487,25.5s-20.923-10.332-24.391-21.86c-5.355-17.8,10.689-26.686,28.517-23.475C207.716,97.549,221.335,102.9,220.043,115.932Z" transform="translate(-170.118 -90.846)" />
				<path class="o" d="M189.02,136.924l-3.453,35.5,18.358.109-.978-31.834Z" transform="translate(-170.088 -90.765)" />
				<path class="q" d="M203.585,161.824l-12-14.27,11.38-4.616Z" transform="translate(-170.076 -90.753)" />
				<path class="o" d="M191.917,102.742a26.132,26.132,0,0,1,12.227-.457c5.459,1.16,12.454,4.61,13.31,14.6,1.427,16.647-.625,30.061-8.853,33.811-6.315,2.879-10.908,1.753-18.163-2.494-2.7-1.58-5.268-8.268-5.995-11.456l-3.1-8.908S172.912,107.893,191.917,102.742Z" transform="translate(-170.099 -90.834)" />
				<path d="M184.661,132.66s8.074-25.276-3.716-25.967l-6.508,12.581,3.42,10.542Z" transform="translate(-170.109 -90.824)" />
				<g transform="translate(4.124 36.809)">
					<path class="o" d="M186.7,138.017a18.464,18.464,0,0,0-2.687-6.464c-1.823-2.727-4.431-5.248-7.712-3.232-5.587,3.432,1.281,12.39,7.409,12.505,1.8.034,3.294-1.373,2.99-2.809Z" transform="translate(-174.233 -127.592)" />
				</g>
				<path d="M183.488,107.383c.008.008,40.663,7.66,40.021-7.4-.6-14.137-21.439-8.973-27.123-3.616l-15.913,8.2Z" transform="translate(-170.098 -90.855)" />
			</g>
		</g>
		<g transform="translate(320.794 225.161)">
			<g transform="translate(90.529 195.193)">
				<g transform="translate(0 71.544)">
					<rect class="s" width="112.736" height="14.309" />
					<rect class="t" width="21.441" height="14.309" transform="translate(11.66)" />
					<rect class="u" width="15.723" height="14.309" transform="translate(83.594)" />
				</g>
				<g transform="translate(0 42.926)">
					<rect class="s" width="112.736" height="14.309" />
					<rect class="t" width="21.441" height="14.309" transform="translate(11.66)" />
					<rect class="u" width="15.723" height="14.309" transform="translate(83.594)" />
				</g>
				<rect class="s" width="112.736" height="14.309" />
				<rect class="t" width="21.441" height="14.309" transform="translate(11.66)" />
				<rect class="u" width="15.723" height="14.309" transform="translate(83.594)" />
				<g transform="translate(13.419 85.853)">
					<rect class="s" width="112.736" height="14.309" />
					<rect class="t" width="21.441" height="14.309" transform="translate(11.66)" />
					<rect class="u" width="15.723" height="14.309" transform="translate(83.594)" />
				</g>
				<g transform="translate(13.419 28.618)">
					<rect class="s" width="112.736" height="14.309" />
					<rect class="t" width="21.441" height="14.309" transform="translate(11.66)" />
					<rect class="u" width="15.723" height="14.309" transform="translate(83.594)" />
				</g>
				<g transform="translate(13.419 14.309)">
					<rect class="s" width="112.736" height="14.309" />
					<rect class="t" width="21.441" height="14.309" transform="translate(11.66)" />
					<rect class="u" width="15.723" height="14.309" transform="translate(83.594)" />
				</g>
				<g transform="translate(13.419 57.235)">
					<rect class="s" width="112.736" height="14.309" />
					<rect class="t" width="21.441" height="14.309" transform="translate(11.66)" />
					<rect class="u" width="15.723" height="14.309" transform="translate(83.594)" />
				</g>
				<line class="v" x1="99.317" transform="translate(13.419 85.853)" />
				<line class="v" x1="99.317" transform="translate(13.419 71.544)" />
				<line class="v" x1="99.317" transform="translate(13.419 57.235)" />
				<line class="v" x1="99.317" transform="translate(13.419 42.926)" />
				<line class="v" x1="112.736" transform="translate(13.419 28.618)" />
				<line class="v" x1="112.736" transform="translate(13.419 14.309)" />
			</g>
			<g transform="translate(0 141.969)">
				<g transform="translate(53.189 0.014)">
					<g transform="translate(8.721 84.327)">
						<g transform="translate(0 46.514)">
							<path class="b" d="M394.7,508.165l-11.1,5.977a3.187,3.187,0,0,0-1.549,3.5c.277,1.107,1.211,1.961,3.668,2.032,5.459.16,37.524-.113,37.524-.113h0l12.009-.221s-1.907-16.03-5.3-18.155Z" transform="translate(-381.961 -497.016)" />
							<path class="w" d="M415.416,498.45l-20.741,9.723s7.707,5.534,16.172,1.972,19.078-8.948,19.078-8.948l-1.5-4.172Z" transform="translate(-381.937 -497.024)" />
						</g>
						<path class="w" d="M429.922,501.287,415.965,450.6l-19.527.8,18.471,52.9Z" transform="translate(-381.933 -450.6)" />
					</g>
					<path d="M374.3,409.641l26.736,80.907,33.307-6.875-27.414-87.089Z" transform="translate(-373.255 -366.378)" />
					<path d="M497.208,366.562s29.736,42.452-7.446,54.289l-100.221-.519A16.36,16.36,0,0,1,374.3,409.7h0a16.361,16.361,0,0,1,12.3-21.8l89.25-12.019-2.813-9.439Z" transform="translate(-373.257 -366.437)" />
				</g>
				<path class="b" d="M508.541,366.621s23.421,33.437,2.7,49.236a25.423,25.423,0,0,1-15.574,5.026l-94.792-.491a16.361,16.361,0,0,1-15.241-10.634h0c-3.553-9.509,2.4-21.523,12.379-23.4l67.876-9.142,4.347-10.791Z" transform="translate(-320.046 -366.423)" />
				<g transform="translate(0 30.398)">
					<g transform="translate(0 53.821)">
						<g transform="translate(0 46.315)">
							<path class="b" d="M332.91,507.845l-11.1,5.978a3.185,3.185,0,0,0-1.549,3.5c.277,1.107,1.211,1.961,3.668,2.032,5.459.16,35.481-.482,35.481-.482h0l11.29.133s.856-16.016-2.539-18.141Z" transform="translate(-320.171 -496.696)" />
							<path class="w" d="M353.626,498.13l-20.741,9.723s7.707,5.534,16.171,1.972,19.079-8.948,19.079-8.948l-1.5-4.172Z" transform="translate(-320.147 -496.704)" />
						</g>
						<path class="w" d="M368.1,500.967l24.536-50.488-22.289.788-18.1,51.713Z" transform="translate(-320.109 -450.479)" />
					</g>
					<path class="b" d="M386.068,396.762,350.6,487.773l31.745,11.473,35.635-87.1Z" transform="translate(-320.112 -396.762)" />
				</g>
			</g>
			<g transform="translate(58.599 64.351)">
				<g transform="translate(38.173)">
					<g transform="translate(0 5.577)">
						<g transform="translate(34.18)">
							<path class="w" d="M455.17,305.35l-2,61.272a9.619,9.619,0,0,0,10.2,9.76h0a9.619,9.619,0,0,0,9.032-9.2l3.522-60.928Z" transform="translate(-450.864 -294.5)" />
							<path class="h" d="M451.061,328.33s-2.933-32.673,14.081-33.78c19.28-1.254,13.18,38.688,13.3,35.847Z" transform="translate(-450.869 -294.521)" />
						</g>
						<path class="w" d="M416.755,372.4l44.063-12.913,2.615,16.793-43.707,4.2Z" transform="translate(-416.755 -294.395)" />
					</g>
					<g transform="translate(41.093)">
						<path class="h" d="M486.3,288.955l21.959,3.53s4.177-.61,7.616,11.411C518.8,314.149,508,366.314,508,366.314H469.7l-10.142-32.971a30.809,30.809,0,0,1-1.683-8.1,36.35,36.35,0,0,1,2.672-17.131l2.163-13.152,13.143-4.9Z" transform="translate(-457.768 -288.955)" />
						<path class="w" d="M494.244,290.237l-7.969-1.282-11.331,1.4-4.966,1.883s-4.677,7.133,3.065,8.025C482.447,301.348,489.788,297.759,494.244,290.237Z" transform="translate(-457.747 -288.955)" />
					</g>
					<g transform="translate(30.409 3.48)">
						<g transform="translate(49.507)">
							<path class="w" d="M498.35,304.089l5.969,61.012a9.618,9.618,0,0,0,11.239,8.537h0a9.618,9.618,0,0,0,7.926-10.17l-4.42-60.843Z" transform="translate(-496.513 -292.409)" />
							<path class="h" d="M497.869,327.3s-6.257-33.739,8.145-34.827c19.266-1.456,19.5,36.6,19.3,33.766Z" transform="translate(-496.516 -292.428)" />
						</g>
						<g transform="translate(0 64.842)">
							<path class="w" d="M468.8,374.985l42.308-17.84,4.507,16.387-42.946,9.138Z" transform="translate(-447.063 -357.145)" />
							<path class="w" d="M468.84,374.957s-7.573-10.236-21.735,3.715l4.753,3.971h20.853l2.642-7.065Z" transform="translate(-447.105 -357.117)" />
						</g>
					</g>
				</g>
				<g transform="translate(0 46.514)">
					<path d="M462.249,382.227h38.96a4.362,4.362,0,0,1,4.362,4.362H462.249Z" transform="translate(-378.494 -335.288)" />
					<path d="M465.97,386.681H399.487L384.81,340.625a4.158,4.158,0,0,1,4.013-5.246H446.69a4.157,4.157,0,0,1,4.013,3.069Z" transform="translate(-378.644 -335.379)" />
					<path class="x" d="M462.412,386.681H393.48L378.8,340.625a4.158,4.158,0,0,1,4.013-5.246h60.316a4.157,4.157,0,0,1,4.013,3.069Z" transform="translate(-378.656 -335.379)" />
					<path class="h" d="M422.555,360.763a4.833,4.833,0,1,1-4.832-4.832A4.833,4.833,0,0,1,422.555,360.763Z" transform="translate(-378.59 -335.339)" />
				</g>
			</g>
			<g transform="translate(129.714)">
				<path d="M486.542,234.476s3.595-2.379,8.062,2.94,4.92,17.258-2.958,20.142Z" transform="translate(-449.562 -224.711)" />
				<path d="M490.442,234.494s-5.454-12.844-21.935-9.071S442,245.4,456.948,254.017Z" transform="translate(-449.634 -224.729)" />
				<path d="M456.952,250.972c.812,10.772,9.626,18.867,21.224,17.993s20.343-10.314,19.532-21.085-10.872-18.794-22.471-17.921S456.141,240.2,456.952,250.972Z" transform="translate(-449.62 -224.719)" />
				<path class="w" d="M480.856,263.531l8.656,27.167-9.595,7.919-5.449-3.8-3.044-26.531Z" transform="translate(-449.591 -224.654)" />
				<path class="q" d="M473.682,288l7.88-15.3-9.873-2.42Z" transform="translate(-449.591 -224.641)" />
				<path class="w" d="M478.879,234.106a23.45,23.45,0,0,0-10.97.393c-4.809,1.4-10.842,4.943-10.953,13.937-.184,14.99,2.455,26,10.064,28.814,5.84,2.161,9.876.854,16.09-3.423,2.311-1.592,4.249-6.884,4.689-9.785l2.189-8.175S496.223,237.468,478.879,234.106Z" transform="translate(-449.619 -224.712)" />
				<path d="M487.6,260.443s-11.045-19.562-.6-26.047c0,0,4.73-.711,7.341,8.443C498.54,257.525,487.6,260.443,487.6,260.443Z" transform="translate(-449.57 -224.711)" />
				<g transform="translate(36.166 29.935)">
					<path class="w" d="M485.744,264.472a16.587,16.587,0,0,1,1.981-5.961c1.452-2.56,3.621-4.987,6.689-3.4,5.225,2.7-.334,11.172-5.809,11.678-1.611.148-3.039-1.013-2.861-2.318Z" transform="translate(-485.729 -254.606)" />
					<path class="j" d="M486.294,267.289a2.267,2.267,0,1,0,2.056-2.461A2.267,2.267,0,0,0,486.294,267.289Z" transform="translate(-485.728 -254.587)" />
				</g>
				<path d="M490.384,237.705s-22.32,18.674-36.047,8.078c0,0-5.147-12.233,15.664-16.151S490.384,237.705,490.384,237.705Z" transform="translate(-449.626 -224.721)" />
			</g>
		</g>
		<g transform="translate(343.339 81.07)">
			<g transform="translate(14.03 22.242)">
				<g transform="translate(25.617 8.937)">
					<path d="M388.746,120.642a2.889,2.889,0,0,0-2.913-2.925,1.858,1.858,0,0,1-1.344-.453,1.059,1.059,0,0,1-.238-.651,1.01,1.01,0,0,1,1.01-1.011,3.009,3.009,0,0,1,1.649.492l1.45-1.449a5.023,5.023,0,0,0-1.938-.93v-1.679h-1.81v1.615a3.031,3.031,0,0,0-.068,5.9,6.8,6.8,0,0,1,1.781.32.854.854,0,0,1,.4.77,1.007,1.007,0,0,1-1,1.011,3.012,3.012,0,0,1-2.061-.811l-1.424,1.423a5.035,5.035,0,0,0,2.37,1.272v1.253h1.81v-1.211A3.027,3.027,0,0,0,388.746,120.642Z" transform="translate(-382.242 -112.036)" />
				</g>
				<g transform="translate(19.002 6.161)">
					<path class="h" d="M385.321,109.265a9.679,9.679,0,1,0,9.68,9.679A9.692,9.692,0,0,0,385.321,109.265Zm4.3,16.112a7.738,7.738,0,1,1,2.134-10.734A7.746,7.746,0,0,1,389.619,125.377Z" transform="translate(-375.64 -109.265)" />
				</g>
				<g transform="translate(0 0.67)">
					<path class="h" d="M414.412,103.785H356.675v29.958h57.737Zm-2.818,21.092H411.2a6.168,6.168,0,0,0-6.168,6.168v.392H365.681v-.392a6.168,6.168,0,0,0-6.168-6.168h-.391V113.032h.391a6.168,6.168,0,0,0,6.168-6.168v-.392h39.354v.392a6.168,6.168,0,0,0,6.168,6.168h.391Z" transform="translate(-356.675 -103.785)" />
				</g>
				<g transform="translate(55.98)">
					<path class="y" d="M412.546,103.116l.022.041A.073.073,0,0,0,412.546,103.116Z" transform="translate(-412.546 -103.116)" />
				</g>
			</g>
			<g transform="translate(1.117 1.372)">
				<path class="b" d="M406.46,154.656H364.678l-20.891-36.184,20.891-36.184H406.46l20.891,36.184Zm-41-1.352h40.222l20.112-34.833L405.679,83.638H365.457l-20.111,34.834Z" transform="translate(-343.787 -82.287)" />
			</g>
			<g transform="translate(20.501 71.017)">
				<path class="h" d="M367.228,153.845a2.048,2.048,0,1,1-2.047-2.048A2.047,2.047,0,0,1,367.228,153.845Z" transform="translate(-363.133 -151.797)" />
			</g>
			<g transform="translate(61.685 71.018)">
				<circle class="h" cx="2.047" cy="2.047" r="2.047" />
			</g>
			<g transform="translate(61.685)">
				<circle class="h" cx="2.047" cy="2.047" r="2.047" />
			</g>
			<g transform="translate(20.35)">
				<circle class="h" cx="2.047" cy="2.047" r="2.047" />
			</g>
			<g transform="translate(0 35.509)">
				<circle class="h" cx="2.047" cy="2.047" r="2.047" />
			</g>
			<g transform="translate(81.703 35.509)">
				<circle class="h" cx="2.047" cy="2.047" r="2.047" />
			</g>
		</g>
		<path class="q" d="M237.216,212.973l-6.9-15.6-.484,18.647,3.973,1.889Z" transform="translate(0.447 0.379)" />
		<g transform="translate(588.89 82.323)">
			<g transform="translate(1.117 1.372)">
				<path class="b" d="M651.534,155.906H609.752l-20.891-36.184,20.891-36.184h41.782l20.892,36.184Zm-41-1.351h40.222l20.111-34.834L650.754,84.888H610.532l-20.111,34.834Z" transform="translate(-588.861 -83.537)" />
			</g>
			<g transform="translate(20.501 71.018)">
				<path class="h" d="M612.3,155.095a2.047,2.047,0,1,1-2.047-2.047A2.047,2.047,0,0,1,612.3,155.095Z" transform="translate(-608.208 -153.048)" />
			</g>
			<g transform="translate(61.685 71.018)">
				<circle class="h" cx="2.047" cy="2.047" r="2.047" />
			</g>
			<g transform="translate(61.685)">
				<circle class="h" cx="2.047" cy="2.047" r="2.047" />
			</g>
			<g transform="translate(20.35)">
				<circle class="h" cx="2.047" cy="2.047" r="2.047" />
			</g>
			<g transform="translate(0 35.509)">
				<circle class="h" cx="2.047" cy="2.047" r="2.047" />
			</g>
			<g transform="translate(81.703 35.509)">
				<circle class="h" cx="2.047" cy="2.047" r="2.047" />
			</g>
			<g transform="translate(14.805 16.687)">
				<g transform="translate(6.398)">
					<path class="h" d="M632.231,136l-.1-27.811a3.53,3.53,0,0,0,1.565-1.577l14.267-.054.432-.856a.556.556,0,0,1,.992,0l.437.854.777,0a1.577,1.577,0,0,0-.012-3.154l-16.9.063a3.54,3.54,0,0,0-1.577-1.565L632.1,100.4a1.577,1.577,0,1,0-3.154.011l.006,1.494a3.53,3.53,0,0,0-1.565,1.577l-16.9.063a1.577,1.577,0,0,0,.012,3.154l.774,0,.432-.856a.558.558,0,0,1,.495-.307.551.551,0,0,1,.5.3l.438.854,14.269-.054a3.516,3.516,0,0,0,1.576,1.564l.105,27.812Z" transform="translate(-608.909 -98.823)" />
				</g>
				<g transform="translate(37.394 6.568)">
					<path class="h" d="M649.322,105.681a.556.556,0,0,0-.992,0l-.432.856-8,15.909a.531.531,0,0,0-.054.252l1.177,0,7.81-15.533,7.926,15.475,1.178-.005a.588.588,0,0,0-.055-.253l-8.122-15.847Z" transform="translate(-639.844 -105.378)" />
				</g>
				<g transform="translate(36.693 23.821)">
					<path class="h" d="M641.023,122.664l-1.177,0-.7,0a9.746,9.746,0,1,0,19.493-.073l-.7,0-1.178.005Z" transform="translate(-639.145 -122.598)" />
				</g>
				<g transform="translate(0.702 6.706)">
					<path class="h" d="M612.7,105.819a.551.551,0,0,0-.5-.3.558.558,0,0,0-.495.307l-.432.856-8,15.909a.537.537,0,0,0-.054.252l1.175,0,7.812-15.533,7.928,15.474,1.177-.005a.579.579,0,0,0-.055-.252l-8.122-15.847Z" transform="translate(-603.224 -105.516)" />
				</g>
				<g transform="translate(0 23.96)">
					<path class="h" d="M604.4,122.8l-1.175,0-.7,0a9.748,9.748,0,0,0,19.5-.073l-.7,0-1.177.005Z" transform="translate(-602.523 -122.736)" />
				</g>
				<g transform="translate(13.139 37.141)">
					<path class="h" d="M632.219,135.923l-3.154.012-8.362.032.008,2.251-5.074.019.009,2.252,29.937-.112-.008-2.251-5.074.019-.008-2.251Z" transform="translate(-615.637 -135.892)" />
				</g>
			</g>
		</g>
		<path class="q" d="M193.965,314.712c6.617,5.678-1.433,177.145-1.433,177.145l-7.056-.127Z" transform="translate(0.361 0.607)" />
		<g transform="translate(210.716 2.75)">
			<g transform="translate(9.394 20.449)">
				<path class="k" d="M274.9,42.741c.041,0,.079.005.119.006V26a2.838,2.838,0,0,0-2.838-2.838H222.52A2.838,2.838,0,0,0,219.682,26V56.507a2.838,2.838,0,0,0,2.838,2.838h39.223a13.48,13.48,0,0,1,13.161-16.6ZM220.51,37.586V28.363h53.685v9.223Z" transform="translate(-219.682 -23.16)" />
				<g transform="translate(44.154 22.042)">
					<g transform="translate(9.712 7.963)">
						<path class="y" d="M273.443,53.9a.864.864,0,0,0,.642.831V53.107c-.025.011-.051.019-.074.03A.838.838,0,0,0,273.443,53.9Z" transform="translate(-273.443 -53.107)" />
					</g>
					<g transform="translate(12.391 11.985)">
						<path class="y" d="M276.117,59.132a2.047,2.047,0,0,0,.213-.113,1.094,1.094,0,0,0,.575-.974c0-.451-.263-.757-.789-.924Z" transform="translate(-276.117 -57.121)" />
					</g>
					<path class="h" d="M263.75,56.227a11.067,11.067,0,1,0,11.068-11.068A11.081,11.081,0,0,0,263.75,56.227Zm12.391-6.379v1.033a4.4,4.4,0,0,1,2.631,1.442.4.4,0,0,1,.143.31.425.425,0,0,1-.228.361l-1.091.684,0,0a.925.925,0,0,1-.332.1.684.684,0,0,1-.455-.165,2.922,2.922,0,0,0-.664-.437v1.834a4.389,4.389,0,0,1,2.882,1.377,2.472,2.472,0,0,1,.55,1.677,2.9,2.9,0,0,1-1.4,2.484,4.989,4.989,0,0,1-2.036.737v.906a.531.531,0,0,1-.531.531h-.974a.531.531,0,0,1-.532-.531v-.9a5.186,5.186,0,0,1-2.378-1.017,4.925,4.925,0,0,1-1.04-1.038.426.426,0,0,1-.116-.284.43.43,0,0,1,.25-.389l.994-.582,0,0a1.052,1.052,0,0,1,.291-.085.512.512,0,0,1,.43.21,3.939,3.939,0,0,0,1.566,1.091V56.9a4.048,4.048,0,0,1-2.771-1.44,2.579,2.579,0,0,1-.525-1.547,2.806,2.806,0,0,1,1.931-2.675,4.855,4.855,0,0,1,1.366-.383V49.848a.532.532,0,0,1,.532-.531h.974A.532.532,0,0,1,276.141,49.848Z" transform="translate(-263.75 -45.159)" />
				</g>
			</g>
			<circle class="z" cx="40.124" cy="40.124" r="40.124" transform="translate(0)" />
			<path class="aa" d="M241.571,82.015a40.128,40.128,0,0,1,7.008-79.222" transform="translate(-210.307 -2.75)" />
		</g>
		<g transform="translate(464.538 5.118)">
			<g transform="translate(23.308 17.661)">
				<path class="h" d="M517.456,36.572h.088c0-9.955-10.574-17.491-21.075-11.959a12.5,12.5,0,0,0-6.586,11.082v5.863H486.9V67.665H520.53V41.558h-3.074ZM507.169,61.094h-6.91l1.088-7.7a4.031,4.031,0,1,1,4.735,0Zm4.255-19.537H495.949V35.711a6.414,6.414,0,0,1,2.95-5.42c5.807-3.688,11.9.017,12.526,5.372Z" transform="translate(-486.899 -22.739)" />
				<path class="a" d="M498.881,30.28a6.414,6.414,0,0,0-2.95,5.42v5.846h15.476V35.652C510.78,30.3,504.688,26.592,498.881,30.28Z" transform="translate(-486.881 -22.728)" />
			</g>
			<path class="ab" d="M526.684,12.32A40.128,40.128,0,0,1,490.3,83.039" transform="translate(-463.584 -5.099)" />
			<circle class="z" cx="40.124" cy="40.124" r="40.124" />
		</g>
		<g transform="translate(594.351 194.359)">
			<path class="h" d="M593.2,315.268l8.216,50.437,30.629-4.975,1.8-49.362Z" transform="translate(-593.197 -193.759)" />
			<g transform="translate(32.239 11.093)">
				<g class="ac">
					<g transform="translate(-65.568 -14.061)">
						<rect class="w" width="170.473" height="183.659" />
					</g>
				</g>
			</g>
			<g transform="translate(73.659)">
				<g class="ad">
					<g transform="translate(-6.147 -2.077)">
						<rect width="38.866" height="42.221" transform="translate(0 38.584) rotate(-83.1)" />
					</g>
				</g>
			</g>
			<g transform="translate(44.28 151.006)">
				<g class="ae">
					<g transform="translate(-0.423 -0.441)">
						<rect class="b" width="71.907" height="163.254" />
					</g>
				</g>
			</g>
			<g transform="translate(37.158 53.608)">
				<g class="af">
					<g class="c" transform="translate(-54.46 -35.049)">
						<rect class="d" width="159.306" height="148.527" />
					</g>
				</g>
			</g>
			<path class="b" d="M644.417,514.229c5.405-1.048,4.719-7.308,4.719-7.308l13.312-.488a37.438,37.438,0,0,1,1.787,9.585c.115,3.439,1.3,8.116-2.1,8.766-4.058.77-26.77-.409-28.9-3.083-2.778-3.482,3.87-5.84,8.913-6.816" transform="translate(-593.121 -193.38)" />
			<g transform="translate(44.28 151.006)">
				<g class="ae">
					<path class="w" d="M637.394,426.711,667.4,433.6l40.588-5.667-11.641,80.026H636.97l-.658-94.816Z" transform="translate(-637.394 -344.567)" />
				</g>
			</g>
			<path class="b" d="M674.615,513.8c5.405-1.049,5.768-7.571,5.768-7.571l11.848-.251a52.731,52.731,0,0,1,1.112,8.992c.11,3.439,1.437,8.069-1.495,8.734-4.026.913-26.3.242-28.437-2.433-2.778-3.481,3.875-5.84,8.913-6.815" transform="translate(-593.062 -193.38)" />
			<g transform="translate(37.158 53.608)">
				<g class="af">
					<path class="w" d="M713.088,304.478l18.5-9.956,7.046,18.992L727.61,351.04l-5.973,9.838-9.8-1.414-3.1-9.8,8.152-30.326Z" transform="translate(-630.131 -247.399)" />
				</g>
			</g>
			<g transform="translate(37.158 53.608)">
				<g class="af">
					<path class="w" d="M651.942,311.1l1.538-4.6-25.641-5.112L622.1,356.974l16.771,1.819,11.372-8.762Z" transform="translate(-630.299 -247.386)" />
				</g>
			</g>
			<g class="ag" transform="translate(55.517 184.576)">
				<g class="ah">
					<g transform="translate(-0.216 0.571)">
						<path d="M677.343,378.775c-1.677,4.9-8.21,14.408-12.394,20.065s-17.359,17.747-16.52,32.454,9.746,52.429,9.746,55.831-3.334,19.457-5.84,24.358-2.045,10.031-.792,10.031a12.016,12.016,0,0,0,5.474,0c2.165-.582,5.06,1.766,6.291,1.2.86-.4,1.049-3.177,1.049-3.177a9.672,9.672,0,0,0-.409-3.529,34.114,34.114,0,0,1-1.385-5.547c-.524-13.821-1.7-45.792-1.468-48.025.435-4.194-2.884-25.276.147-35.652S677.364,378.8,677.364,378.8" transform="translate(-648.391 -378.775)" />
					</g>
				</g>
			</g>
			<g class="ag" transform="translate(84.485 85.826)">
				<g transform="translate(0)">
					<g class="ai" transform="translate(0)">
						<g transform="translate(4.48 4.042)">
							<path d="M708.788,294.361l-.12,48.974s1.226,10.381-.477,11.534-8.7,2.018-10.817,2.018c-1.442,0-20.8,2.26-13.9-1.184,3.088-1.547,22.424-12.4,16.253-23.069s-3.335-24.322,1.205-33.529,7.953-15.424,7.953-15.424Z" transform="translate(-681.99 -283.681)" />
						</g>
					</g>
				</g>
			</g>
			<path class="q" d="M670.992,236.059a5.116,5.116,0,0,0,3.613-.524c.582-.341,2.705-1.856,3.748-2.689,2.244-1.793-2.48,3.995-3.361,7.308-.981,3.67-2.05-2.36-2.841-3.208A3.136,3.136,0,0,0,670.992,236.059Z" transform="translate(-593.046 -193.912)" />
			<path class="q" d="M701,374.356s-4.53,18.24-8.551,23.593c-4.336,5.767.445,32.181-3.576,43.805-3.8,10.984,1.343,34.866.446,42.467-.734,6.229-.892,19.687-4.158,27.174-1.111,2.549-3.487,4.426-3.487,5.637,0,6.705,9.039,2.38,9.039,2.38l.472-5.946,6.2-52.481,11.408-104.119Z" transform="translate(-593.025 -193.67)" />
			<path class="aj" d="M651.825,311.264s4.483-12.258,4.692-18.639.975,17.827.975,17.827-3.769-1.143-5.667.808" transform="translate(-593.083 -193.798)" />
			<path class="h" d="M662.25,361.334l-4.718-50.914s-5.668-.86-5.668.808c0,2.81-2.06,10.779-3.145,15.367-.976,4.194-2.622,8.672-5.322,18.046a74.429,74.429,0,0,1-3.512,8.635l-2.9,8.557s-.749.887,4.5-.388h0s.665-.247.78.409h0Z" transform="translate(-593.112 -193.761)" />
		</g>
		<path d="M488.785,236.591c4.519-2.987,31.059-2.62,23.817,21.6-4.19,14.009,5.349,8.733,7.234,13.3,0,0-16.381,6.917-18.009-9.164s-1.77-19.864-9.66-21" transform="translate(0.951 0.452)" />
		<rect class="j" width="122.022" height="5.642" transform="translate(597.574 520.353)" />
		<line class="ak" x2="731.905" transform="translate(0 520.488)" />
	</g>
</svg>
