<svg xmlns="http://www.w3.org/2000/svg" xmlns:xlink="http://www.w3.org/1999/xlink" width="247.227" height="189.977" viewBox="0 0 247.227 189.977"><defs><style>.a,.z{fill:none;}.b{clip-path:url(#a);}.c,.j{fill:#ffbd39;}.c{opacity:0.24;isolation:isolate;}.d{fill:url(#b);}.e{fill:#f5c7c8;}.f{fill:#606161;}.g{fill:url(#c);}.h{fill:#dbb4af;}.i{fill:url(#d);}.k{fill:url(#e);}.l{fill:url(#f);}.m{fill:#4eae93;}.n{fill:url(#g);}.o{fill:url(#h);}.p{fill:url(#i);}.q{fill:url(#j);}.r{fill:#fff;}.s{fill:url(#k);}.t{fill:url(#l);}.u{fill:url(#m);}.v{fill:url(#n);}.w{fill:url(#o);}.x{fill:url(#p);}.y{fill:url(#q);}.z{stroke:#1b2f3f;stroke-width:5px;opacity:0.1;}</style><clipPath id="a"><path class="a" d="M242.132,112.128c-.087,11.233-1.563,22.683-6.171,32.712a53.787,53.787,0,0,1-12.177,16.815c-12,11.35-28.655,17.5-44.76,19.422-22.77,2.724-45.8-1.143-68.7.056-14.29.753-28.481,3.464-42.789,3.841S38.358,183.152,26.211,174.9a53.788,53.788,0,0,1-12.125-11.48A65.825,65.825,0,0,1,3.84,144.438c-9.129-26.338-1.589-58.5,18.023-76.809,7.739-7.232,16.958-12.3,26.117-17.2C67.142,40.208,99.318-30.989,174.706,15.78c14.724,9.159,22.349,27.914,35.367,39.784,11.593,10.566,24.74,20.9,29.642,36.5C241.742,98.474,242.179,105.36,242.132,112.128Z" transform="translate(0.01 -0.015)"/></clipPath><linearGradient id="b" x1="0.497" y1="-19.236" x2="0.549" y2="6.269" gradientUnits="objectBoundingBox"><stop offset="0" stop-color="#010101" stop-opacity="0"/><stop offset="0.95" stop-color="#010101"/></linearGradient><linearGradient id="c" x1="0.947" y1="7.368" x2="-0.004" y2="7.409" xlink:href="#b"/><linearGradient id="d" x1="0.686" y1="-1.439" x2="-0.558" y2="-1.364" xlink:href="#b"/><linearGradient id="e" x1="-1.523" y1="0.462" x2="13.991" y2="2.065" xlink:href="#b"/><linearGradient id="f" x1="0.431" y1="12.647" x2="3.422" y2="17.052" xlink:href="#b"/><linearGradient id="g" x1="0.714" y1="-22.969" x2="0.134" y2="-18.428" xlink:href="#b"/><linearGradient id="h" x1="0.631" y1="-22.268" x2="0.052" y2="-17.731" xlink:href="#b"/><linearGradient id="i" x1="0.853" y1="7.618" x2="0.171" y2="7.163" xlink:href="#b"/><linearGradient id="j" x1="-0.204" y1="-0.111" x2="2.371" y2="1.609" xlink:href="#b"/><linearGradient id="k" x1="8.139" y1="0.691" x2="-40.881" y2="-0.394" gradientUnits="objectBoundingBox"><stop offset="0" stop-color="#fff" stop-opacity="0"/><stop offset="0.14" stop-color="#fff" stop-opacity="0.22"/><stop offset="0.3" stop-color="#fff" stop-opacity="0.451"/><stop offset="0.45" stop-color="#fff" stop-opacity="0.651"/><stop offset="0.6" stop-color="#fff" stop-opacity="0.8"/><stop offset="0.73" stop-color="#fff" stop-opacity="0.91"/><stop offset="0.85" stop-color="#fff" stop-opacity="0.98"/><stop offset="0.94" stop-color="#fff"/></linearGradient><linearGradient id="l" x1="2.152" y1="-12.387" x2="-7.399" y2="-14.971" xlink:href="#k"/><linearGradient id="m" x1="0.617" y1="8.834" x2="0.528" y2="7.546" xlink:href="#k"/><linearGradient id="n" x1="0.495" y1="19.838" x2="1.756" y2="22.419" xlink:href="#b"/><linearGradient id="o" x1="0.503" y1="12.997" x2="0.496" y2="14.449" xlink:href="#k"/><linearGradient id="p" x1="0.49" y1="-44.719" x2="0.558" y2="-53.232" xlink:href="#b"/><linearGradient id="q" x1="0.579" y1="-13.272" x2="0.59" y2="-10.633" xlink:href="#b"/></defs><g transform="translate(2.593 2.462)"><g class="b" transform="translate(-0.01 0.015)"><g transform="translate(0.004 16.882)"><path class="c" d="M210.667,368.068C198.612,379.4,181.88,385.533,165.7,387.457c-22.875,2.719-46.015-1.141-69.02.056-14.356.752-28.613,3.459-42.987,3.835s-29.309-1.82-41.513-10.055A53.89,53.89,0,0,1,0,369.832a30.362,30.362,0,0,1,3.559-.679c24.128-3.242,48.547-3.632,72.892-4.007l66.462-1.042a197.381,197.381,0,0,1,22.1.475c9.388.9,18.607,3.125,28,3.964C198.973,369.084,204.8,368.219,210.667,368.068Z" transform="translate(0 -223.269)"/><path class="d" d="M183.851,374.144a1250.484,1250.484,0,0,0-134.9-.121c-7.591.4-15.318.9-22.409,3.631,3.48,3.16,8.657,3.411,13.373,3.489q51.836.83,103.68.459c2.028,0,4.829-.9,4.429-2.875-.122-.6-.561-1.132-.527-1.729.065-1.1,1.484-1.5,2.61-1.552a43.136,43.136,0,0,1,8.971.475,4.747,4.747,0,0,1,2.932,1.254,11.779,11.779,0,0,1,1.148,2.248c1.331,2.417,4.655,2.944,7.4,2.413s5.291-1.816,8.062-1.954c2.441-.125,4.825.657,7.209,1.206,7.792,1.79,15.914,1.128,23.879.458,8.266-.7,8.44-6.372.2-6.826C201.257,374.257,192.517,374.624,183.851,374.144Z" transform="translate(-15.048 -227.945)"/><path class="e" d="M455.99,214.2l-3.729-20.231h5.121s1.174,16.185,1.74,20.573Z" transform="translate(-256.412 -126.863)"/><path class="e" d="M461.735,237.313a14.382,14.382,0,0,1,.3,4.915c-.422,1.759-2.175,3.809-3.167,3.929s-1.6-.363-1.527-1.033,2.61-3.052,2.219-3.809-1.392,1.543-1.74.986-.2-1.422.674-2.516a2.557,2.557,0,0,0,0-2.619S461.118,236.008,461.735,237.313Z" transform="translate(-259.286 -151.083)"/><path class="f" d="M443.428,96.466c1.066-.783,3.232-.514,4.307-.087a5.446,5.446,0,0,1,3.206,3.588,6.444,6.444,0,0,1,.165,2.3,6.129,6.129,0,0,1-2.28,4.427c-2.906,2.11-4.7.151-5.56-2.481a9.723,9.723,0,0,1-.513-4.66c.157-1.189-.391-2.127.535-2.978Z" transform="translate(-250.972 -71.297)"/><path class="g" d="M443.428,96.466c1.066-.783,3.232-.514,4.307-.087a5.446,5.446,0,0,1,3.206,3.588,6.444,6.444,0,0,1,.165,2.3,6.129,6.129,0,0,1-2.28,4.427c-2.906,2.11-4.7.151-5.56-2.481a9.723,9.723,0,0,1-.513-4.66c.157-1.189-.391-2.127.535-2.978Z" transform="translate(-250.972 -71.297)"/><ellipse class="f" cx="8.057" cy="9.986" rx="8.057" ry="9.986" transform="translate(178.308 20.028)"/><path class="e" d="M360.641,166.4a14.708,14.708,0,0,0-2.119-2.979c-.64-.385-1.775-1.452-2.105-1.21-.6.433,1.971,2.7-.318,2.529a4.911,4.911,0,0,0-3.084.826,1.682,1.682,0,0,0-.062,2.39,1.65,1.65,0,0,0,.145.135,9.529,9.529,0,0,0,3.776.562,6.458,6.458,0,0,1,3.176.579" transform="translate(-199.843 -108.835)"/><path class="e" d="M386,146.514a28.807,28.807,0,0,0-1.161,5.088c-.1,1.785-.948,9.286-1.231,9.653s-13.822-4.207-13.822-4.207a3.912,3.912,0,0,0-.165,3.3s10.054,9.039,16.14,9.394,5.3-13.967,5.3-13.967" transform="translate(-209.415 -99.956)"/><path class="e" d="M429.572,333.787l-1.118,2.512c.661-.225,3.829,2.3,5.255,2.309a4.552,4.552,0,0,0,2.584-.938l-.9-4.552-1.6-22.536-8.583,1.236Z" transform="translate(-241.079 -192.974)"/><path class="e" d="M394.909,336.658l-1.649,1.534c.7-.052,3.128,3.182,4.511,3.541a4.572,4.572,0,0,0,2.741-.268l.27-4.634,1.74-20.858-8.462.826Z" transform="translate(-222.961 -196.031)"/><path class="e" d="M428.931,123.694l.344,7.254a3.807,3.807,0,0,1-3.48,1.621c-3.524-.389-3.372-1.426-3.372-1.426s0-5.235-.139-6.406" transform="translate(-239.415 -87.018)"/><path class="h" d="M428.1,127.231l.814-1.461-6.617.731c.052.433.087,1.487.1,2.594A5.283,5.283,0,0,0,428.1,127.231Z" transform="translate(-239.421 -88.195)"/><path class="f" d="M417.1,243.632s1.062,19.955,2.476,36.106c0,0-19.421,2.78-27.352-.311,0,0,1.705-32.18,2.062-36.8Z" transform="translate(-222.374 -154.448)"/><path class="i" d="M417.1,243.632s1.062,19.955,2.476,36.106c0,0-19.421,2.78-27.352-.311,0,0,1.705-32.18,2.062-36.8Z" transform="translate(-222.374 -154.448)"/><path class="j" d="M419.278,143.466s-.035-1.426-5.007-1.47c-3.624-.035-4.89-.329-7.465.16-4.7.891-5.221,1.18-5.938,1.785-1.7,1.457-4.586,40.636-4.586,40.636s-2.885,4.7,12.051,6.217c5.525.562,10.876-3.243,10.876-3.243Z" transform="translate(-224.547 -97.326)"/><path class="e" d="M425.123,91.345s-.291,9.29-3.011,12.467c-2.867,3.355-4.5,3.765-7.979,2.395-2.958-1.171-3.311-9.216-3.411-11.534C410.466,88.66,419.742,83.481,425.123,91.345Z" transform="translate(-232.859 -66.414)"/><path class="k" d="M443.964,160.241l.218,37.705-3.433,1.967-.613-33.3Z" transform="translate(-249.537 -107.738)"/><path class="j" d="M427.193,137.5l.065,1.7a.708.708,0,0,1-.391.657A30.039,30.039,0,0,1,419.545,141l-3.411-.864a.706.706,0,0,1-.435-.61l-.048-.843a.714.714,0,0,1,.631-.748l10.1-1.137a.717.717,0,0,1,.807.612A.666.666,0,0,1,427.193,137.5Z" transform="translate(-235.655 -94.446)"/><path class="l" d="M427.193,137.5l.065,1.7a.708.708,0,0,1-.391.657A30.039,30.039,0,0,1,419.545,141l-3.411-.864a.706.706,0,0,1-.435-.61l-.048-.843a.714.714,0,0,1,.631-.748l10.1-1.137a.717.717,0,0,1,.807.612A.666.666,0,0,1,427.193,137.5Z" transform="translate(-235.655 -94.446)"/><path class="e" d="M440.842,108.937a.99.99,0,0,1,1.536-.8c1.388.605.083,3.026-.457,3.705a1.725,1.725,0,0,1-1.575.462" transform="translate(-249.656 -78.114)"/><path class="m" d="M445.1,93.762l.553,2.2h-.9l-.761-3.35Z" transform="translate(-251.718 -69.393)"/><path class="j" d="M442.563,144.576s2.045,1.911,5.808,10.881a68.645,68.645,0,0,1,2.819,10.492s-5.247,2.676-8.34,2.676c-1.383-7.976-4.707-11.067-5.325-14.746S440.693,143.867,442.563,144.576Z" transform="translate(-248.019 -98.826)"/><path class="j" d="M381.442,367.494a7.372,7.372,0,0,0-3.819,2.559,3.2,3.2,0,0,0-.674,1.691,1.687,1.687,0,0,0,.8,1.561,2.664,2.664,0,0,0,1.166.225,94.117,94.117,0,0,0,11.15-.195.787.787,0,0,0,.944-.964l-.1-2.317a1.193,1.193,0,0,0-.191-.735c-.414-.5-1.218-.082-1.866-.116-1.305-.069-1.636-1.682-2.71-2.127C384.905,366.565,382.669,367.122,381.442,367.494Z" transform="translate(-213.71 -224.887)"/><path class="j" d="M423.26,367.179a7.32,7.32,0,0,0-3.82,2.559,3.191,3.191,0,0,0-.679,1.69,1.682,1.682,0,0,0,.8,1.556,2.657,2.657,0,0,0,1.166.229,93.183,93.183,0,0,0,11.15-.2.792.792,0,0,0,.948-.592.776.776,0,0,0,0-.368l-.1-2.322a1.177,1.177,0,0,0-.191-.731c-.413-.5-1.218-.082-1.871-.117-1.3-.069-1.631-1.682-2.706-2.131C426.7,366.246,424.469,366.8,423.26,367.179Z" transform="translate(-237.416 -224.707)"/><path class="n" d="M381.442,367.494a7.372,7.372,0,0,0-3.819,2.559,3.2,3.2,0,0,0-.674,1.691,1.687,1.687,0,0,0,.8,1.561,2.664,2.664,0,0,0,1.166.225,94.117,94.117,0,0,0,11.15-.195.787.787,0,0,0,.944-.964l-.1-2.317a1.193,1.193,0,0,0-.191-.735c-.414-.5-1.218-.082-1.866-.116-1.305-.069-1.636-1.682-2.71-2.127C384.905,366.565,382.669,367.122,381.442,367.494Z" transform="translate(-213.71 -224.887)"/><path class="o" d="M423.26,367.179a7.32,7.32,0,0,0-3.82,2.559,3.191,3.191,0,0,0-.679,1.69,1.682,1.682,0,0,0,.8,1.556,2.657,2.657,0,0,0,1.166.229,93.183,93.183,0,0,0,11.15-.2.792.792,0,0,0,.948-.592.776.776,0,0,0,0-.368l-.1-2.322a1.177,1.177,0,0,0-.191-.731c-.413-.5-1.218-.082-1.871-.117-1.3-.069-1.631-1.682-2.706-2.131C426.7,366.246,424.469,366.8,423.26,367.179Z" transform="translate(-237.416 -224.707)"/><path class="f" d="M409.969,87.209c-.143.255-.278.523-.413.808a5.079,5.079,0,0,0-.509,2.421c0,.346.674,2,.609,2.131a11.968,11.968,0,0,1,3.867-4.444c.618,1.387,2.118,2.131,3.48,2.784s2.871,1.452,3.4,2.879c.37.977.23,2.161.87,2.987,1.579-.212,1.923-2.745,3.48-3.026.283-.052.579,0,.87-.078a1.732,1.732,0,0,0,1.249-1.608c.243-3.273-3.75-6.312-6.417-7.406a10.065,10.065,0,0,0-7.8,0A5.469,5.469,0,0,0,409.969,87.209Z" transform="translate(-231.909 -64.44)"/><path class="p" d="M409.969,87.209c-.143.255-.278.523-.413.808a5.079,5.079,0,0,0-.509,2.421c0,.346.674,2,.609,2.131a11.968,11.968,0,0,1,3.867-4.444c.618,1.387,2.118,2.131,3.48,2.784s2.871,1.452,3.4,2.879c.37.977.23,2.161.87,2.987,1.579-.212,1.923-2.745,3.48-3.026.283-.052.579,0,.87-.078a1.732,1.732,0,0,0,1.249-1.608c.243-3.273-3.75-6.312-6.417-7.406a10.065,10.065,0,0,0-7.8,0A5.469,5.469,0,0,0,409.969,87.209Z" transform="translate(-231.909 -64.44)"/><path class="j" d="M58.2,55.941h79.983a6.93,6.93,0,0,1,6.952,6.908V191.622a6.93,6.93,0,0,1-6.952,6.908H58.2a6.93,6.93,0,0,1-6.952-6.908V62.849A6.93,6.93,0,0,1,58.2,55.941Z" transform="translate(-29.054 -48.605)"/><path class="j" d="M64.356,55.941H144.34a6.93,6.93,0,0,1,6.952,6.908V191.622a6.93,6.93,0,0,1-6.952,6.908H64.356a6.93,6.93,0,0,1-6.952-6.908V62.849A6.93,6.93,0,0,1,64.356,55.941Z" transform="translate(-32.545 -48.605)"/><path class="j" d="M64.356,55.941H144.34a6.93,6.93,0,0,1,6.952,6.908V191.622a6.93,6.93,0,0,1-6.952,6.908H64.356a6.93,6.93,0,0,1-6.952-6.908V62.849A6.93,6.93,0,0,1,64.356,55.941Z" transform="translate(-32.545 -48.605)"/><path class="q" d="M73.97,147.032l2.458-75.1,71.065,1.491s-9.293,77.952-2.732,98.071,7.652,27.667,7.652,27.667l-76.8,2.161Z" transform="translate(-41.938 -57.672)"/><path class="r" d="M168.438,192.523l-77.691.817s-7.988-46.113-9.375-61.572C80.01,116.875,79.7,71.933,79.7,71.933h74.188s.187,43.554,1.5,57.984C156.839,145.839,168.438,192.523,168.438,192.523Z" transform="translate(-45.185 -57.672)"/><path class="j" d="M348.865,52.922,343.58,41l-.435-1.012a.152.152,0,0,0-.074-.074.241.241,0,0,0-.339,0,.246.246,0,0,0-.053.078l-5.725,12.934a2.144,2.144,0,0,0-.174.865V178.678h12.259V53.791A2.152,2.152,0,0,0,348.865,52.922Zm.074,125.683h-12.09v-2.65h12.09Z" transform="translate(-190.939 -39.478)"/><path class="s" d="M350.381,53.776V175.939h-7.513V53.758a3.252,3.252,0,0,1,.1-.865l3.511-12.934a.114.114,0,0,1,.026-.074c.074-.116.2-.086.248.074l.278,1.012,3.232,11.923A3.3,3.3,0,0,1,350.381,53.776Z" transform="translate(-194.39 -39.462)"/><path class="t" d="M342.868,360.276h7.513v9c0,1.184-.6,2.14-1.327,2.14h-4.877c-.731,0-1.305-.955-1.305-2.14Z" transform="translate(-194.391 -221.149)"/><path class="u" d="M349.039,54a14.062,14.062,0,0,1-12.259,0l3.611-7.842,2.736-5.944,2.358,5.512Z" transform="translate(-190.939 -39.691)"/><path class="j" d="M350.212,45.69a7.438,7.438,0,0,1-5.094.432l2.736-5.944Z" transform="translate(-195.666 -39.668)"/><path class="v" d="M349.831,45.022a8.376,8.376,0,0,1-5.386.372L347.194,39Z" transform="translate(-195.285 -39)"/><path class="j" d="M97.615,107.053h36.622a1.226,1.226,0,0,1,1.231,1.221h0a1.226,1.226,0,0,1-1.231,1.221H97.615a1.226,1.226,0,0,1-1.231-1.221h0A1.226,1.226,0,0,1,97.615,107.053Z" transform="translate(-54.645 -77.583)"/><path class="j" d="M97.615,116.776h36.622A1.226,1.226,0,0,1,135.468,118h0a1.226,1.226,0,0,1-1.231,1.221H97.615A1.226,1.226,0,0,1,96.384,118h0A1.226,1.226,0,0,1,97.615,116.776Z" transform="translate(-54.645 -83.095)"/><path class="j" d="M97.615,126.5h36.622a1.226,1.226,0,0,1,1.231,1.221h0a1.226,1.226,0,0,1-1.231,1.221H97.615a1.226,1.226,0,0,1-1.231-1.221h0A1.226,1.226,0,0,1,97.615,126.5Z" transform="translate(-54.645 -88.608)"/><path class="j" d="M126.928,136.222H151.2a1.006,1.006,0,0,1,1.009,1v.437a1.006,1.006,0,0,1-1.009,1H126.928a1.006,1.006,0,0,1-1.009-1v-.437A1.006,1.006,0,0,1,126.928,136.222Z" transform="translate(-71.39 -94.12)"/><path class="j" d="M98.559,168.676h36.622a1.226,1.226,0,0,1,1.231,1.221h0a1.226,1.226,0,0,1-1.231,1.221H98.559a1.226,1.226,0,0,1-1.231-1.221h0A1.226,1.226,0,0,1,98.559,168.676Z" transform="translate(-55.181 -112.52)"/><path class="j" d="M98.559,178.4h36.622a1.226,1.226,0,0,1,1.231,1.222h0a1.226,1.226,0,0,1-1.231,1.221H98.559a1.226,1.226,0,0,1-1.231-1.221h0A1.226,1.226,0,0,1,98.559,178.4Z" transform="translate(-55.181 -118.033)"/><path class="j" d="M98.559,188.113h36.622a1.226,1.226,0,0,1,1.231,1.221h0a1.226,1.226,0,0,1-1.231,1.221H98.559a1.226,1.226,0,0,1-1.231-1.221h0A1.226,1.226,0,0,1,98.559,188.113Z" transform="translate(-55.181 -123.54)"/><path class="j" d="M127.873,197.836h24.275a1.006,1.006,0,0,1,1.009,1v.437a1.006,1.006,0,0,1-1.009,1H127.873a1.006,1.006,0,0,1-1.009-1v-.437A1.006,1.006,0,0,1,127.873,197.836Z" transform="translate(-71.926 -129.053)"/><path class="j" d="M141.384,229.917H104.758a1.45,1.45,0,0,1-1.392-1.223h0a1.046,1.046,0,0,1,1.066-1.219h36.622a1.446,1.446,0,0,1,1.4,1.219h0a1.047,1.047,0,0,1-.859,1.209A1.072,1.072,0,0,1,141.384,229.917Z" transform="translate(-58.595 -145.856)"/><path class="j" d="M142.674,239.6H106.048a1.449,1.449,0,0,1-1.405-1.241h0a1.052,1.052,0,0,1,1.066-1.219h36.627a1.45,1.45,0,0,1,1.392,1.219h0a1.051,1.051,0,0,1-1.053,1.241Z" transform="translate(-59.319 -151.335)"/><path class="j" d="M144,249.323H107.37a1.449,1.449,0,0,1-1.392-1.219h0a1.047,1.047,0,0,1,.859-1.209,1.071,1.071,0,0,1,.207-.015h36.64a1.45,1.45,0,0,1,1.392,1.223h0A1.05,1.05,0,0,1,144,249.323Z" transform="translate(-60.076 -156.859)"/><path class="j" d="M162.235,259.038H137.959a1.19,1.19,0,0,1-1.144-1l-.061-.433a.866.866,0,0,1,.72-.992.921.921,0,0,1,.151-.011H161.9a1.19,1.19,0,0,1,1.144,1l.056.433a.865.865,0,0,1-.725.988A.9.9,0,0,1,162.235,259.038Z" transform="translate(-77.527 -162.372)"/><path class="j" d="M151.535,291.62H114.908a1.564,1.564,0,0,1-1.466-1.236h0a.994.994,0,0,1,.727-1.206,1.01,1.01,0,0,1,.27-.03h36.627a1.564,1.564,0,0,1,1.466,1.236h0a.994.994,0,0,1-1,1.236Z" transform="translate(-64.299 -180.822)"/><path class="j" d="M153.4,301.418H116.765a1.563,1.563,0,0,1-1.466-1.241h0a.989.989,0,0,1,.716-1.205,1.018,1.018,0,0,1,.275-.031h36.627a1.559,1.559,0,0,1,1.466,1.236h0a.995.995,0,0,1-.983,1.241Z" transform="translate(-65.352 -186.375)"/><path class="j" d="M155.288,311.29H118.661a1.564,1.564,0,0,1-1.466-1.237h0a.994.994,0,0,1,.748-1.193,1.014,1.014,0,0,1,.248-.026h36.631a1.568,1.568,0,0,1,1.466,1.241h0a1,1,0,0,1-.753,1.19A1.031,1.031,0,0,1,155.288,311.29Z" transform="translate(-66.429 -191.983)"/><path class="j" d="M174.072,321.126H149.8a1.3,1.3,0,0,1-1.205-1.016l-.082-.433a.812.812,0,0,1,.818-1.012H173.6a1.3,1.3,0,0,1,1.2,1.012l.087.433a.813.813,0,0,1-.587.99A.849.849,0,0,1,174.072,321.126Z" transform="translate(-84.183 -197.558)"/><path class="j" d="M210.076,124.388h-7.3a5.265,5.265,0,0,1-5.277-5.244V111.3a5.265,5.265,0,0,1,5.277-5.244h7.3a5.266,5.266,0,0,1,5.278,5.244v7.864A5.265,5.265,0,0,1,210.076,124.388Zm-7.3-16.907a3.816,3.816,0,0,0-3.824,3.8v7.864a3.817,3.817,0,0,0,3.824,3.8h7.3a3.812,3.812,0,0,0,3.82-3.8V111.3a3.812,3.812,0,0,0-3.82-3.8Z" transform="translate(-111.973 -77.017)"/><path class="j" d="M214.078,186.917H206.8a5.259,5.259,0,0,1-5.273-5.006l-.348-7.7a5.257,5.257,0,0,1,5.032-5.476c.08,0,.16-.006.24-.006h7.287a5.254,5.254,0,0,1,5.242,5.01l.352,7.7a5.257,5.257,0,0,1-5.032,5.476c-.08,0-.16.006-.24.006Zm-7.639-16.743a3.808,3.808,0,0,0-3.824,3.792c0,.059,0,.118,0,.177l.352,7.7a3.8,3.8,0,0,0,3.815,3.622h7.292a3.808,3.808,0,0,0,3.824-3.791c0-.059,0-.118,0-.177l-.352-7.7a3.81,3.81,0,0,0-3.82-3.627Z" transform="translate(-114.056 -112.549)"/><path class="j" d="M211.773,244.275a5.255,5.255,0,0,1-5.255-4.825l-.622-7.682a5.258,5.258,0,0,1,4.844-5.65c.078-.006.155-.01.233-.013l7.287-.251a5.308,5.308,0,0,1,5.447,4.807l.622,7.682a5.262,5.262,0,0,1-4.852,5.65q-.112.009-.225.013l-7.287.251Zm6.678-16.976h-.139l-7.287.251a3.814,3.814,0,0,0-3.686,3.941c0,.054.005.107.01.161l.622,7.682a3.828,3.828,0,0,0,3.941,3.493l7.287-.255a3.805,3.805,0,0,0,3.686-3.924c0-.058-.005-.116-.01-.175l-.622-7.682a3.8,3.8,0,0,0-3.8-3.493Z" transform="translate(-116.724 -144.937)"/><path class="j" d="M224.18,303.319a5.281,5.281,0,0,1-5.221-4.405l-1.218-7.487a5.248,5.248,0,0,1,4.362-6.018,5.321,5.321,0,0,1,.663-.065l7.222-.251a5.325,5.325,0,0,1,5.394,4.405l1.218,7.487A5.252,5.252,0,0,1,232.23,303a5.345,5.345,0,0,1-.654.064l-7.226.246Zm6-16.782h-.135l-7.222.251a3.809,3.809,0,0,0-3.674,3.942,3.674,3.674,0,0,0,.046.462l1.222,7.487a3.865,3.865,0,0,0,3.915,3.19l7.222-.251a3.8,3.8,0,0,0,3.685-3.916,3.7,3.7,0,0,0-.048-.484l-1.218-7.492A3.821,3.821,0,0,0,230.184,286.537Z" transform="translate(-123.41 -178.522)"/><path class="j" d="M124.369,65.345h35.413a2.58,2.58,0,0,1,2.589,2.572v4.02a2.581,2.581,0,0,1-2.589,2.572H124.369a2.581,2.581,0,0,1-2.589-2.572v-4.02A2.58,2.58,0,0,1,124.369,65.345Z" transform="translate(-69.044 -53.936)"/><path class="w" d="M124.369,65.345h35.413a2.58,2.58,0,0,1,2.589,2.572v4.02a2.581,2.581,0,0,1-2.589,2.572H124.369a2.581,2.581,0,0,1-2.589-2.572v-4.02A2.58,2.58,0,0,1,124.369,65.345Z" transform="translate(-69.044 -53.936)"/><path class="j" d="M209.589,116.056l-6.378-6.324a2.161,2.161,0,0,1,0-3.069,2.194,2.194,0,0,1,3.089,0l3.045,3.026,10.219-11.745a2.195,2.195,0,0,1,3.082-.223,2.162,2.162,0,0,1,.224,3.063h0Z" transform="translate(-114.849 -71.992)"/><path class="j" d="M216.537,176.88l-6.374-6.333a2.161,2.161,0,0,1,0-3.069,2.194,2.194,0,0,1,3.089,0h0L216.3,170.5l10.219-11.745a2.195,2.195,0,0,1,3.082-.223,2.162,2.162,0,0,1,.224,3.063h0Z" transform="translate(-118.79 -106.471)"/><path class="j" d="M221.584,234.874l-6.378-6.346a2.161,2.161,0,0,1,0-3.069,2.194,2.194,0,0,1,3.089,0l3.045,3.026,10.219-11.745a2.192,2.192,0,0,1,3.078-.223,2.159,2.159,0,0,1,.224,3.059h0Z" transform="translate(-121.65 -139.344)"/><path class="j" d="M234.672,293.225l-6.374-6.338a2.159,2.159,0,0,1,0-3.067,2.193,2.193,0,0,1,3.087,0h0l3.046,3.026,10.223-11.741a2.2,2.2,0,0,1,3.082-.223,2.162,2.162,0,0,1,.224,3.063Z" transform="translate(-129.073 -172.436)"/><rect class="j" width="12.086" height="2.65" transform="translate(145.915 136.477)"/><rect class="x" width="12.086" height="2.65" transform="translate(145.915 136.477)"/><path class="j" d="M349.039,360.445v8.927a2.142,2.142,0,0,1-2.144,2.14h-7.962a2.142,2.142,0,0,1-2.154-2.131v-8.936Z" transform="translate(-190.939 -221.245)"/><path class="y" d="M349.039,360.445v8.927a2.142,2.142,0,0,1-2.144,2.14h-7.962a2.142,2.142,0,0,1-2.154-2.131v-8.936Z" transform="translate(-190.939 -221.245)"/></g></g><path class="z" d="M242.132,112.128c-.087,11.233-1.563,22.683-6.171,32.712a53.787,53.787,0,0,1-12.177,16.815c-12,11.35-28.655,17.5-44.76,19.422-22.77,2.724-45.8-1.143-68.7.056-14.29.753-28.481,3.464-42.789,3.841S38.358,183.152,26.211,174.9a53.788,53.788,0,0,1-12.125-11.48A65.825,65.825,0,0,1,3.84,144.438c-9.129-26.338-1.589-58.5,18.023-76.809,7.739-7.232,16.958-12.3,26.117-17.2C67.142,40.208,99.318-30.989,174.706,15.78c14.724,9.159,22.349,27.914,35.367,39.784,11.593,10.566,24.74,20.9,29.642,36.5C241.742,98.474,242.179,105.36,242.132,112.128Z"/></g></svg>