<svg xmlns="http://www.w3.org/2000/svg" xmlns:xlink="http://www.w3.org/1999/xlink" width="223.13" height="189.999" viewBox="0 0 223.13 189.999"><defs><style>.a,.f,.o{fill:none;}.b{clip-path:url(#a);}.c,.i{fill:#ffbd39;}.c{opacity:0.63;}.c,.j,.l{isolation:isolate;}.d{fill:url(#b);}.e{fill:#f7af81;}.f{stroke:#fff;stroke-miterlimit:10;stroke-width:3.95px;}.g,.k,.l{fill:#fff;}.h{fill:#e8e8e8;}.j{opacity:0.26;fill:url(#c);}.k{opacity:0.18;}.l{opacity:0.59;}.m{opacity:0.52;}.n{opacity:0.61;}.o{stroke:#1b2f3f;stroke-width:5px;opacity:0.1;}</style><clipPath id="a"><path class="a" d="M44.039,113.182c3.048-5.774,8.031-10.991,8.224-17.519.135-4.775-2.372-9.155-4.208-13.571-9.363-22.487.333-51.18,21.395-63.409,11.5-6.674,25.119-8.578,38.389-9.327a260.264,260.264,0,0,1,45.146,1.368c8.781,1.04,17.972,2.72,24.765,8.375,10.648,8.843,12.151,24.256,16.2,37.5A86.545,86.545,0,0,0,240.831,109.6c4.021,1.789,8.281,3.329,11.532,6.294,7.132,6.492,7.2,18.175,2.809,26.758s-12.234,14.788-19.855,20.718l-23.647,18.44c-4.786,3.73-9.686,7.527-15.423,9.5-19.116,6.575-45.047-1.155-64.891-2.034-12.812-.572-26.394.7-38.914-2.642C64.727,179.233,27.768,144.044,44.039,113.182Z" transform="translate(-40.049 -8.939)"/></clipPath><linearGradient id="b" x1="0.118" y1="-3.488" x2="1.118" y2="-3.488" gradientUnits="objectBoundingBox"><stop offset="0" stop-color="#e5c6d6"/><stop offset="0.42" stop-color="#ead4d0"/><stop offset="1" stop-color="#f0e9cb"/></linearGradient><linearGradient id="c" y1="-5.915" x2="1" y2="-5.915" gradientUnits="objectBoundingBox"><stop offset="0" stop-color="#010101" stop-opacity="0"/><stop offset="0.95" stop-color="#010101"/></linearGradient></defs><g transform="translate(-37.537 -6.438)"><g class="b" transform="translate(40.049 8.939)"><g transform="translate(-20.832 -4.65)"><path class="c" d="M393.356,86.173H310.128A13.764,13.764,0,0,1,296.38,72.43V13.848A13.764,13.764,0,0,1,310.128.1h83.227A13.764,13.764,0,0,1,407.1,13.848V72.43A13.759,13.759,0,0,1,393.356,86.173ZM310.128,2.155a11.7,11.7,0,0,0-11.693,11.693V72.43a11.7,11.7,0,0,0,11.693,11.688h83.227A11.7,11.7,0,0,0,405.044,72.43V13.848A11.7,11.7,0,0,0,393.356,2.155Z" transform="translate(-142.212 -0.048)"/><path class="c" d="M163.2,40.091H129.445a6.191,6.191,0,0,1-6.185-6.185V10.15a6.19,6.19,0,0,1,6.185-6.19H163.2a6.19,6.19,0,0,1,6.185,6.19V33.906A6.191,6.191,0,0,1,163.2,40.091ZM129.445,6.041a4.161,4.161,0,0,0-4.13,4.13V33.927a4.161,4.161,0,0,0,4.13,4.13H163.2a4.161,4.161,0,0,0,4.13-4.13V10.15a4.161,4.161,0,0,0-4.13-4.109Z" transform="translate(-59.144 -1.9)"/><path class="d" d="M222.869,227.6a3.2,3.2,0,0,0,.52,1.67A2.379,2.379,0,0,0,224.5,230c1.987.7,4.161-.109,6.112-.915a5.258,5.258,0,0,0,2.268-1.441,4.912,4.912,0,0,0,.765-2.752,41.216,41.216,0,0,0-.484-9.4,5,5,0,0,0-.8-2.284c-.962-1.274-2.773-1.446-4.369-1.508-4.021-.151-5.2-.666-5.431,3.548A76.622,76.622,0,0,0,222.869,227.6Z" transform="translate(-106.736 -101.529)"/><path class="e" d="M197.8,154.7a21.324,21.324,0,0,0,3.964,6.05,16.827,16.827,0,0,0,25.8-1.826c2.5-3.48,3.568-7.771,4.317-11.99.65-3.693,1.092-7.537.13-11.163a17.725,17.725,0,0,0-9.259-10.861,27.37,27.37,0,0,0-14.3-2.512,20.708,20.708,0,0,0-8.807,2.362c-5.254,2.986-5.493,7.126-5.254,12.526C194.671,143.2,195.336,149.244,197.8,154.7Z" transform="translate(-93.242 -58.687)"/><path d="M199.678,93.914c-1.446-1.561-3.157-3.152-5.29-3.407s-4.567,1.508-4.161,3.641c-3.3-1.587-7.173-2.892-10.554-1.482a9,9,0,0,0-5.077,7.189,15.05,15.05,0,0,0,1.956,8.843,14.751,14.751,0,0,0,3.189,4.213c3.048,2.684,7.282,3.433,11.329,3.906,6.866.8,13.961,1.092,20.542-1.04,1.987-.64,4.468-1.389,5.914.12,1.077,1.118,1.4,3.334,2.955,3.329,1.259,0,1.831-1.561,1.951-2.825a23.328,23.328,0,0,0-.895-8.905c-1.514-5.009-5.118-8.843-10.606-8.8C205.847,98.757,203.189,97.753,199.678,93.914Z" transform="translate(-83.731 -43.416)"/><rect class="f" width="13.394" height="9.249" rx="4.624" transform="translate(103.816 78)"/><rect class="f" width="13.394" height="9.249" rx="4.624" transform="translate(122.032 78)"/><rect class="g" width="7.464" height="1.108" transform="translate(116.035 81.662)"/><rect class="g" width="6.07" height="1.732" transform="translate(98.614 80.507)"/><rect class="g" width="6.747" height="1.155" transform="translate(134.646 81.183)"/><path d="M196.92,176.983a21.181,21.181,0,0,0,.343,5,13.166,13.166,0,0,0,6.96,8.364,26.722,26.722,0,0,1,2.887,1.519c.947.65,1.732,1.524,2.684,2.174a7.371,7.371,0,0,0,7.771.234,4.346,4.346,0,0,1,2.284-.973,5.939,5.939,0,0,1,1.815.629,5.841,5.841,0,0,0,4.239-.661,5.748,5.748,0,0,0,3.121-2.627,12.08,12.08,0,0,0,.562-2.637c.447-2.268,1.909-4.193,2.809-6.325,1.873-4.416,1.248-9.446.593-14.2l-2.164,3.584a6.293,6.293,0,0,1-2.882,2.97c-1.743.619-3.594-.39-5.28-1.165a21.957,21.957,0,0,0-17-.442,5.99,5.99,0,0,1-3.5.718c-1.4-.333-3.459-4.026-4.567-3.7C196.249,169.857,196.93,175.849,196.92,176.983Z" transform="translate(-94.41 -80.366)"/><path class="h" d="M176.867,232.91a37.282,37.282,0,0,1,36.355,17.348c2.434,4.078,4.068,8.619,6.762,12.536,2.845,4.161,6.762,7.433,10.034,11.251a45.28,45.28,0,0,1,6.58,10.19c1.561,3.35,2.668,7.532.572,10.585-1.925,2.809-5.722,3.485-9.129,3.74a200.1,200.1,0,0,1-20.375.177l-66.748-1.649c-2.975-.073-6.024-.161-8.786-1.269s-5.2-3.48-5.555-6.435c-.52-4.328,3.355-7.719,6.242-10.991,8.39-9.55,10.268-23.444,18.352-33.255A33.019,33.019,0,0,1,175.9,233.295" transform="translate(-60.712 -111.596)"/><rect class="i" width="60.408" height="4.047" transform="translate(92.929 182.154)"/><rect class="i" width="60.408" height="4.047" transform="translate(92.929 182.154)"/><rect class="i" width="95.015" height="57.422" rx="20.61" transform="translate(76.257 115.291)"/><path class="j" d="M210.88,311.79l10.112-20.51h9.254l1.3,20.8Z" transform="translate(-101.186 -139.764)"/><path class="i" d="M240.288,325.965H222.17l4.239-34.685h9.254Z" transform="translate(-106.603 -139.764)"/><path class="k" d="M241.952,325.965H223.84l4.239-34.685h9.249Z" transform="translate(-107.405 -139.764)"/><rect class="g" width="108.679" height="84.013" rx="13" transform="translate(155.183)"/><path class="c" d="M64.86,146.8H9.483A9.5,9.5,0,0,1,0,137.314V98.348A9.5,9.5,0,0,1,9.483,88.86H64.86a9.5,9.5,0,0,1,9.483,9.488v38.966A9.5,9.5,0,0,1,64.86,146.8ZM9.483,90.915a7.443,7.443,0,0,0-7.433,7.433v38.966a7.443,7.443,0,0,0,7.433,7.433H64.86a7.443,7.443,0,0,0,7.433-7.433V98.348a7.443,7.443,0,0,0-7.433-7.433Z" transform="translate(0 -42.638)"/><rect class="g" width="72.293" height="55.887" rx="10" transform="translate(1.025 45.858)"/><rect class="g" width="44.074" height="34.071" rx="4" transform="translate(65.001 2.154)"/><path class="i" d="M135.76,32.3l11.121-5.722v1.654l-9.363,4.682v.052l9.363,4.682v1.659L135.76,33.587Z" transform="translate(-65.142 -12.754)"/><path class="i" d="M160.12,36.924l6.689-17.384h1.628l-6.71,17.384Z" transform="translate(-76.83 -9.376)"/><path class="i" d="M190.131,33.66,179.02,39.382V37.7l9.441-4.682v-.078l-9.441-4.682V26.57l11.111,5.722Z" transform="translate(-85.899 -12.749)"/><path class="e" d="M189.866,335.486c-2.382-.479-4.838-.042-7.282.031-2.33.068-4.682-.208-6.986,0a9.107,9.107,0,0,0-6.206,2.814,6.164,6.164,0,0,0-1.415,4.125,3.23,3.23,0,0,0,.416,1.6c.635,1.014,1.956,1.321,3.121,1.493a2.109,2.109,0,0,0,.723,0c.858-.187,1.16-1.29,1.9-1.748a2.933,2.933,0,0,1,1.628-.281q9.145.187,18.294-.073a2.408,2.408,0,0,0,1.212-.25c1.665-1.04-.26-3.371-.858-4.484A6.586,6.586,0,0,0,189.866,335.486Z" transform="translate(-80.599 -160.87)"/><path class="e" d="M258.066,337.282c-.837,1.15-1.3,2.975-.166,3.839,1.014.78,2.5.135,3.449-.723s1.81-1.971,3.069-2.216a4.35,4.35,0,0,0,1.332,2.939c1.358.988,3.23.135,4.905.151,1.509,0,3.23.713,4.4-.25.6-.52,1.29-1.441,1.914-.962a1.244,1.244,0,0,1,.359.64,17.885,17.885,0,0,0,2.5,4.916c.759.3,1.332-.733,1.477-1.561a24.679,24.679,0,0,0,.265-6.835,5.643,5.643,0,0,0-1.3-3.516c-1.181-1.181-3.048-1.233-4.718-1.207l-6.7.1C264.86,332.673,260.548,333.89,258.066,337.282Z" transform="translate(-123.425 -159.539)"/><path class="l" d="M239.735,255.392a6.643,6.643,0,1,1-6.653-6.653,4.454,4.454,0,0,1,1.04.1,6.559,6.559,0,0,0,5.587,6.3A.943.943,0,0,1,239.735,255.392Z" transform="translate(-108.657 -119.352)"/><g class="m" transform="translate(169.035 11.132)"><rect class="i" width="27.777" height="2.039"/><rect class="i" width="16.952" height="1.914" transform="translate(0 3.943)"/><rect class="i" width="53.349" height="1.925" transform="translate(23.793 3.943)"/><rect class="i" width="23.314" height="2.018" transform="translate(8.817 7.891)"/><rect class="i" width="27.777" height="2.039" transform="translate(16.302 11.834)"/><rect class="i" width="23.283" height="2.263" transform="translate(45.89 11.834)"/><rect class="i" width="21.447" height="1.914" transform="translate(16.261 15.777)"/><rect class="i" width="44.256" height="2.117" transform="translate(39.767 15.777)"/><rect class="i" width="27.777" height="2.039" transform="translate(0 21.109)"/><rect class="i" width="16.952" height="1.914" transform="translate(0 25.051)"/><rect class="i" width="53.349" height="1.925" transform="translate(23.793 25.051)"/><rect class="i" width="23.314" height="2.018" transform="translate(8.817 28.994)"/><rect class="i" width="27.777" height="2.039" transform="translate(16.302 32.942)"/><rect class="i" width="23.283" height="2.263" transform="translate(45.89 32.942)"/><rect class="i" width="21.447" height="1.914" transform="translate(16.261 36.885)"/><rect class="i" width="44.256" height="2.117" transform="translate(39.767 36.885)"/><rect class="i" width="27.777" height="2.039" transform="translate(0 42.222)"/><rect class="i" width="16.952" height="1.914" transform="translate(0 46.16)"/><rect class="i" width="53.349" height="1.925" transform="translate(23.793 46.16)"/><rect class="i" width="23.314" height="2.018" transform="translate(8.817 50.103)"/><rect class="i" width="27.777" height="2.039" transform="translate(16.302 54.046)"/><rect class="i" width="23.283" height="2.263" transform="translate(45.89 54.046)"/><rect class="i" width="21.447" height="1.914" transform="translate(16.261 57.999)"/><rect class="i" width="44.256" height="2.117" transform="translate(39.767 57.999)"/></g><g class="m" transform="translate(9.628 54.582)"><rect class="i" width="18.045" height="1.321"/><rect class="i" width="11.017" height="1.243" transform="translate(0 2.559)"/><rect class="i" width="34.659" height="1.248" transform="translate(15.46 2.559)"/><rect class="i" width="15.147" height="1.311" transform="translate(5.727 5.129)"/><rect class="i" width="18.045" height="1.321" transform="translate(10.591 7.688)"/><rect class="i" width="15.127" height="1.472" transform="translate(29.811 7.688)"/><rect class="i" width="13.935" height="1.243" transform="translate(10.565 10.253)"/><rect class="i" width="28.755" height="1.378" transform="translate(25.832 10.253)"/><rect class="i" width="18.045" height="1.321" transform="translate(0 13.717)"/><rect class="i" width="11.017" height="1.243" transform="translate(0 16.276)"/><rect class="i" width="34.659" height="1.248" transform="translate(15.46 16.276)"/><rect class="i" width="15.147" height="1.311" transform="translate(5.727 18.841)"/><rect class="i" width="18.045" height="1.321" transform="translate(10.591 21.405)"/><rect class="i" width="15.127" height="1.472" transform="translate(29.811 21.405)"/><rect class="i" width="13.935" height="1.243" transform="translate(10.565 23.964)"/><rect class="i" width="28.755" height="1.378" transform="translate(25.832 23.964)"/><rect class="i" width="18.045" height="1.321" transform="translate(0 27.434)"/><rect class="i" width="11.017" height="1.243" transform="translate(0 29.993)"/><rect class="i" width="34.659" height="1.248" transform="translate(15.46 29.993)"/><rect class="i" width="15.147" height="1.311" transform="translate(5.727 32.552)"/><rect class="i" width="18.045" height="1.321" transform="translate(10.591 35.117)"/><rect class="i" width="15.127" height="1.472" transform="translate(29.811 35.117)"/><rect class="i" width="13.935" height="1.243" transform="translate(10.565 37.681)"/><rect class="i" width="28.755" height="1.378" transform="translate(25.832 37.681)"/></g><g class="n" transform="translate(175.844 117.096)"><path class="i" d="M338.05,238.406c.166-.889.343-1.779.52-2.668.094-.52.182-1,.281-1.561.832.14,1.644.27,2.45.427a.416.416,0,0,0,.536-.242c0-.009.007-.019.01-.029.364-.707.77-1.394,1.2-2.081a.4.4,0,0,0-.018-.566l-.019-.017c-.52-.619-1.04-1.259-1.618-1.919l3.485-2.929c.52.64,1.072,1.259,1.587,1.9a.436.436,0,0,0,.594.171.418.418,0,0,0,.041-.025,17.377,17.377,0,0,1,2.154-.785c.338-.1.416-.234.411-.551V225.11h4.546v2.429c0,.322.083.442.411.52a18.427,18.427,0,0,1,2.154.791.432.432,0,0,0,.6-.109.394.394,0,0,0,.029-.047c.52-.629,1.04-1.243,1.587-1.893l3.48,2.923-1.784,2.138c.484.889.936,1.743,1.42,2.575.052.094.281.14.416.12.811-.125,1.623-.276,2.486-.427l.791,4.473c-.848.151-1.67.291-2.486.453-.135.026-.333.151-.354.26-.161.947-.291,1.9-.442,2.9l2.4,1.394-2.273,3.938-2.419-1.389c-.78.624-1.534,1.217-2.278,1.836a.432.432,0,0,0-.068.385c.27.806.567,1.6.869,2.434l-4.271,1.561c-.265-.723-.551-1.43-.775-2.159a.62.62,0,0,0-.69-.538.658.658,0,0,0-.09.018,16.5,16.5,0,0,1-2.211,0,.369.369,0,0,0-.446.271c0,.01,0,.02-.006.031-.27.78-.562,1.561-.863,2.372l-4.276-1.561.957-2.642-2.408-2.029-2.44,1.4-2.278-3.938c.754-.437,1.462-.853,2.18-1.254a.4.4,0,0,0,.227-.511l0-.009c-.166-.733-.3-1.477-.4-2.221-.047-.364-.13-.52-.52-.588-.791-.088-1.561-.26-2.351-.4Zm13.92-5.425a5.81,5.81,0,1,0,5.722,5.909A5.81,5.81,0,0,0,351.97,232.98Z" transform="translate(-338.05 -225.11)"/><path class="i" d="M396.381,271.037l.994,3.121c-.577.192-1.134.359-1.67.562a.474.474,0,0,0-.265.338c-.047.551-.031,1.1-.073,1.654a.364.364,0,0,0,.267.44l.008,0c.52.192,1.04.421,1.6.65-.416,1.04-.811,2-1.222,3.012-.567-.229-1.1-.463-1.649-.655a.473.473,0,0,0-.416.094c-.437.463-.848.957-1.306,1.482l.931,1.779-2.871,1.529c-.286-.52-.546-1.04-.832-1.561a.458.458,0,0,0-.343-.208c-.661.078-1.321.2-2,.3l-.432,1.961-3.173-.681.411-1.961c-.588-.385-1.15-.765-1.727-1.118a.41.41,0,0,0-.364.062c-.468.343-.921.707-1.41,1.087l-2-2.564c.479-.375.915-.728,1.368-1.066a.348.348,0,0,0,.17-.463l-.013-.026a14.277,14.277,0,0,1-.52-1.535.354.354,0,0,0-.38-.326l-.026,0H377.79v-3.277h2.049c.26-.614.52-1.228.785-1.857.036-.094-.062-.286-.151-.375-.406-.4-.837-.765-1.285-1.17l2.174-2.419,1.5,1.337c.635-.323,1.254-.624,1.862-.957.073-.042.1-.239.094-.354-.062-.562-.151-1.124-.234-1.732l3.22-.447c.083.577.166,1.108.224,1.644.031.3.156.427.473.463a10.191,10.191,0,0,1,1.41.307.4.4,0,0,0,.538-.175c0-.009.009-.018.013-.028.276-.484.583-.941.905-1.451l2.752,1.727-1.04,1.7c.411.557.811,1.108,1.233,1.633a.519.519,0,0,0,.4.062C395.263,271.422,395.814,271.24,396.381,271.037Zm-8.739,8.713a4.161,4.161,0,1,0-4.224-4.1v.02a4.161,4.161,0,0,0,4.224,4.094Z" transform="translate(-357.118 -244.586)"/><path class="i" d="M404.081,239.312l1.254-.983,1.592,2.013a7.964,7.964,0,0,1-.884.7.486.486,0,0,0-.213.759,1.523,1.523,0,0,1,.156.4c.271.822.271.822,1.155.858h.629V245.6h-1.326c-.244,0-.364.057-.416.3a3.146,3.146,0,0,1-.187.567c-.323.806-.328.806.338,1.394l.52.453-1.706,1.919-1.2-1.04c-.468.244-.936.473-1.389.733a.427.427,0,0,0-.13.338c.042.437.114.869.177,1.342l-2.533.369c-.068-.463-.12-.9-.213-1.321a.483.483,0,0,0-.291-.312c-.468-.12-.941-.2-1.467-.3l-.848,1.352-2.18-1.347c.234-.385.447-.754.681-1.108a.328.328,0,0,0,.026-.463.339.339,0,0,0-.068-.057,4.521,4.521,0,0,1-.494-.588c-.4-.557-.4-.557-1.066-.338-.265.094-.52.177-.863.281l-.806-2.429c.421-.14.811-.286,1.217-.4a.375.375,0,0,0,.323-.42c0-.011,0-.022-.006-.033a7.1,7.1,0,0,1,.042-1.1.359.359,0,0,0-.257-.438l-.019,0c-.4-.14-.791-.307-1.212-.479l.947-2.382c.437.172.843.349,1.259.484a.452.452,0,0,0,.39-.083c.343-.359.655-.744,1-1.144l-.739-1.4,2.252-1.217.77,1.4,1.748-.26.333-1.561,2.507.52c-.088.437-.166.848-.26,1.259a.38.38,0,0,0,.184.5l.04.016C403.264,238.787,403.654,239.052,404.081,239.312Zm-7.282,4.806a3.407,3.407,0,1,0,.006-.105c0,.035,0,.07,0,.105Z" transform="translate(-364.095 -230.474)"/></g></g></g><path class="o" d="M44.039,113.182c3.048-5.774,8.031-10.991,8.224-17.519.135-4.775-2.372-9.155-4.208-13.571-9.363-22.487.333-51.18,21.395-63.409,11.5-6.674,25.119-8.578,38.389-9.327a260.264,260.264,0,0,1,45.146,1.368c8.781,1.04,17.972,2.72,24.765,8.375,10.648,8.843,12.151,24.256,16.2,37.5A86.545,86.545,0,0,0,240.831,109.6c4.021,1.789,8.281,3.329,11.532,6.294,7.132,6.492,7.2,18.175,2.809,26.758s-12.234,14.788-19.855,20.718l-23.647,18.44c-4.786,3.73-9.686,7.527-15.423,9.5-19.116,6.575-45.047-1.155-64.891-2.034-12.812-.572-26.394.7-38.914-2.642C64.727,179.233,27.768,144.044,44.039,113.182Z"/></g></svg>