<svg xmlns="http://www.w3.org/2000/svg" xmlns:xlink="http://www.w3.org/1999/xlink" width="245.179" height="189.962" viewBox="0 0 245.179 189.962"><defs><style>.a,.h,.x{fill:none;}.b{clip-path:url(#a);}.c{fill:#ffbd39;}.d{fill:url(#b);}.e{fill:url(#c);}.f{fill:url(#d);}.g,.w{fill:#fff;}.h{stroke:#707070;stroke-width:0.46px;}.h,.x{stroke-miterlimit:10;}.i{fill:url(#e);}.j{fill:url(#f);}.k{fill:url(#g);}.l{fill:url(#h);}.m{fill:url(#i);}.n{fill:#ffbbab;}.o{fill:#fc682d;}.p{fill:url(#j);}.q{fill:url(#k);}.r{fill:#473f47;}.s{fill:#020202;}.s,.x{opacity:0.1;}.s,.w{isolation:isolate;}.t{fill:#fdbaac;}.u{fill:#f86938;}.v{fill:#dea095;}.w{opacity:0.41;}.x{stroke:#1b2f3f;stroke-width:5px;}</style><clipPath id="a"><path class="a" d="M100.995,6.944a80.843,80.843,0,0,0-16.256-4.4c-20.719-3.276-43.4,2.8-57.531,18.264C19.4,29.37,14.519,40.188,10.569,51.088,2.091,74.457-2.761,98.638-2.737,123.429A55.659,55.659,0,0,0,13.21,162.071c14.273,14.387,35.382,19.8,55.613,20.865s40.527-1.585,60.758-.5c19.142,1.032,38.2,5.413,57.312,3.95s39.365-10.453,46.924-28.075c8.193-19.117,1.414-52.573-14.875-65.481C200.565,78.277,177.611,70.555,160,55c-7.738-6.82-14.086-15.053-21.271-22.45C128.054,21.583,115.2,12.382,100.995,6.944Z" transform="translate(2.737 -1.686)"/></clipPath><linearGradient id="b" x1="-21.342" y1="-0.356" x2="-22.799" y2="-1.942" gradientUnits="objectBoundingBox"><stop offset="0.01"/><stop offset="0.13" stop-opacity="0.69"/><stop offset="0.25" stop-opacity="0.322"/><stop offset="1" stop-opacity="0"/></linearGradient><linearGradient id="c" x1="-1.221" y1="-0.559" x2="3.407" y2="0.919" xlink:href="#b"/><linearGradient id="d" x1="0.536" y1="-6.865" x2="0.659" y2="-19.662" gradientUnits="objectBoundingBox"><stop offset="0.01"/><stop offset="0.08" stop-opacity="0.69"/><stop offset="0.21" stop-opacity="0.322"/><stop offset="1" stop-opacity="0"/></linearGradient><linearGradient id="e" x1="143.258" y1="-225.047" x2="143.254" y2="-232.811" gradientUnits="objectBoundingBox"><stop offset="0" stop-color="#fff"/><stop offset="1" stop-color="#cbcbcb"/></linearGradient><linearGradient id="f" x1="664.139" y1="-93.8" x2="664.301" y2="-96.174" xlink:href="#e"/><linearGradient id="g" x1="-2.865" y1="0.037" x2="12.285" y2="-0.49" xlink:href="#b"/><linearGradient id="h" x1="0.36" y1="0.171" x2="1.05" y2="-3.752" xlink:href="#d"/><linearGradient id="i" x1="-0.588" y1="-0.836" x2="11.331" y2="-0.801" xlink:href="#b"/><linearGradient id="j" x1="-1.067" y1="-1.536" x2="7.789" y2="-6.486" xlink:href="#b"/><linearGradient id="k" x1="-2.246" y1="-2.44" x2="8.224" y2="-3.041" xlink:href="#b"/></defs><g transform="translate(5.237 0.845)"><g transform="translate(-2.737 1.686)"><g class="b"><g transform="translate(10.344 29.055)"><path class="c" d="M55.849,112.192a12.9,12.9,0,0,0,2.121,5.828c4.666,8.25,9.908,16.378,17.142,22.507,10.64,9,24.571,12.883,38.032,16.516-1.2-.585-2.65-6.787-3.186-8.128-1.04-2.666-2.016-5.365-3.016-8.047-1.577-4.243-4.877-7.657-8.128-10.778a64.385,64.385,0,0,0-25.937-15.216A61.07,61.07,0,0,0,55.849,112.192Z" transform="translate(-18.573 -51.426)"/><path class="d" d="M55.849,112.192a12.9,12.9,0,0,0,2.121,5.828c4.666,8.25,9.908,16.378,17.142,22.507,10.64,9,24.571,12.883,38.032,16.516-1.2-.585-2.65-6.787-3.186-8.128-1.04-2.666-2.016-5.365-3.016-8.047-1.577-4.243-4.877-7.657-8.128-10.778a64.385,64.385,0,0,0-25.937-15.216A61.07,61.07,0,0,0,55.849,112.192Z" transform="translate(-18.573 -51.426)"/><path class="c" d="M115.625,108.93c-1.1-7.673-2.227-15.444-5.316-22.572S101.864,72.768,94.6,70.1q-.317,16.5-.642,32.984c-.122,6.356-.228,12.826,1.626,18.914,3.2,10.664,14.289,23.182,24.978,26.709,1.626-5.129-1.073-12.891-1.829-18.207Z" transform="translate(-25.695 -43.547)"/><path class="e" d="M115.625,108.93c-1.1-7.673-2.227-15.444-5.316-22.572S101.864,72.768,94.6,70.1q-.317,16.5-.642,32.984c-.122,6.356-.228,12.826,1.626,18.914,3.2,10.664,14.289,23.182,24.978,26.709,1.626-5.129-1.073-12.891-1.829-18.207Z" transform="translate(-25.695 -43.547)"/><path class="f" d="M158.7,204.742c-45.363,5.82-91.328,1.349-137.066,1.479-3.308,0-7.844,1.374-7.315,4.641,26.6,6.283,54.182,6.779,81.509,7.234l49.736.813c11.379.187,22.759.382,34.1-.268,4.235-.236,8.567-.618,12.371-2.479,10.713-5.243,5.405-12.127-3.828-13.29C178.395,201.677,168.405,203.5,158.7,204.742Z" transform="translate(-10.792 -68.326)"/><path class="c" d="M110.509,47.178V170.287c0,5.324,4.722,9.632,10.567,9.616l56.3-.089c5.812,0,10.567-4.324,10.567-9.648V47.056c0-5.324-4.714-9.632-10.567-9.624l-56.336.089C115.231,37.53,110.509,41.854,110.509,47.178Zm5.373.081a6.272,6.272,0,0,1,6.5-5.95h7.933v.732a3.975,3.975,0,0,0,4.153,3.788h0l30.253-.049a4,4,0,0,0,4.162-3.8v-.732h8.193c3.585,0,6.5,2.65,6.5,5.925V169.905a6.272,6.272,0,0,1-6.5,5.95l-54.695.081c-3.585,0-6.5-2.65-6.5-5.925Z" transform="translate(-28.805 -37.432)"/><path class="g" d="M107.249,50.257v123.15c0,5.316,4.722,9.624,10.567,9.616l56.288-.089c5.812,0,10.567-4.332,10.567-9.656V50.168c0-5.316-4.722-9.632-10.567-9.616l-56.288.081C111.971,40.65,107.249,44.974,107.249,50.257Zm5.373.089a6.272,6.272,0,0,1,6.5-5.95h7.933v.732a3.991,3.991,0,0,0,4.162,3.8l30.253-.049a4,4,0,0,0,4.154-3.8V44.34h8.193a6.237,6.237,0,0,1,6.5,5.934V173.009a6.272,6.272,0,0,1-6.5,5.95l-54.695.089a6.237,6.237,0,0,1-6.5-5.934Z" transform="translate(-28.194 -38.016)"/><path class="h" d="M113.859,51.247V173.983a6.254,6.254,0,0,0,6.5,5.934l54.695-.089a6.25,6.25,0,0,0,6.5-5.95V51.126a6.248,6.248,0,0,0-6.5-5.934h-8.193v.732a4,4,0,0,1-4.154,3.8l-30.253.049a3.991,3.991,0,0,1-4.162-3.8v-.732h-7.933C116.785,45.306,113.859,47.964,113.859,51.247Z" transform="translate(-29.432 -38.885)"/><path class="c" d="M181.539,51.112V173.848a6.267,6.267,0,0,1-6.5,5.95H120.342a6.237,6.237,0,0,1-6.5-5.934V51.129a6.267,6.267,0,0,1,6.5-5.95h7.941v.732A3.966,3.966,0,0,0,132.42,49.7h.008l30.253-.041a4,4,0,0,0,4.162-3.812v-.723h8.193C178.629,45.187,181.539,47.861,181.539,51.112Z" transform="translate(-29.428 -38.871)"/><path class="i" d="M150.259,47.364l10.4-.016V46.5l-10.4.016Z" transform="translate(-36.245 -39.13)"/><ellipse class="j" cx="1.13" cy="1.032" rx="1.13" ry="1.032" transform="translate(110.143 6.666) rotate(-0.56)"/><rect class="c" width="6.405" height="71.162" rx="3.203" transform="translate(89.207 67.358)"/><rect class="c" width="65.724" height="92.995" rx="7.17" transform="translate(10.217 41.933)"/><rect class="k" width="65.724" height="92.995" rx="7.17" transform="translate(9.153 43.526)"/><rect class="g" width="65.724" height="92.995" rx="7.17" transform="translate(6.836 46.16)"/><path class="l" d="M84.123,143.142V190.57a5.836,5.836,0,0,1-5.836,5.828H24.227A5.828,5.828,0,0,1,18.4,190.57V165.714C62.413,175.484,84.123,143.142,84.123,143.142Z" transform="translate(-11.563 -57.219)"/><path class="c" d="M80.13,125.295v75.714h-6.9V125.295a3.942,3.942,0,0,1,.106-.862h0a4.033,4.033,0,0,1,.317-.813l.114-.211,2.918-5.527,3.032,5.738a3.824,3.824,0,0,1,.309.813A3.459,3.459,0,0,1,80.13,125.295Z" transform="translate(-21.826 -52.491)"/><path class="m" d="M80.13,125.295v75.714h-6.9V125.295a3.942,3.942,0,0,1,.106-.862h0a4.033,4.033,0,0,1,.317-.813l.114-.211,2.918-5.527,3.032,5.738a3.824,3.824,0,0,1,.309.813A3.459,3.459,0,0,1,80.13,125.295Z" transform="translate(-21.826 -52.491)"/><path class="c" d="M77.4,142.841V125.9H80.75V202.51H77.4V143.28a1.009,1.009,0,0,1,.374-1.016,2.24,2.24,0,0,1,1.268-.569,2.444,2.444,0,0,0,.943-.171,1.248,1.248,0,0,0,.512-.813,3.209,3.209,0,0,0,.13-.878.291.291,0,0,0-.073-.26.337.337,0,0,0-.179-.065,2.529,2.529,0,0,0-1.252.146,3.933,3.933,0,0,1-.894.333,1.131,1.131,0,0,1-1.081-.5" transform="translate(-22.56 -53.992)"/><path class="c" d="M80.048,124.433a5.82,5.82,0,0,1-6.689,0h0l.431-1.024,2.918-5.527,3.032,5.738A3.824,3.824,0,0,1,80.048,124.433Z" transform="translate(-21.851 -52.491)"/><path class="c" d="M16.825,103.855a9.473,9.473,0,0,0-4.568.87,9.466,9.466,0,0,0,4.568.878v2.121c-3.406,0-6.836-.927-6.836-2.991s3.43-2.991,6.836-2.991Z" transform="translate(-9.989 -49.47)"/><path class="c" d="M25.219,105.173c0,2.065-3.422,2.991-6.82,2.991V106.05c2.707,0,4.381-.634,4.714-.992a1.057,1.057,0,0,1,2.105.122Z" transform="translate(-11.563 -49.917)"/><path class="c" d="M16.825,118.743a9.473,9.473,0,0,0-4.568.87,9.473,9.473,0,0,0,4.568.87V122.6c-3.406,0-6.836-.927-6.836-2.991s3.43-2.991,6.836-2.991Z" transform="translate(-9.989 -52.255)"/><path class="c" d="M25.219,120.061c0,2.065-3.422,2.991-6.82,2.991V120.93c2.707,0,4.381-.634,4.714-.992a1.057,1.057,0,0,1,2.105.122Z" transform="translate(-11.563 -52.702)"/><path class="c" d="M16.825,133.622a9.436,9.436,0,0,0-4.568.878,9.473,9.473,0,0,0,4.568.87v2.121c-3.406,0-6.836-.927-6.836-2.991s3.43-3.007,6.836-3.007Z" transform="translate(-9.989 -55.038)"/><path class="c" d="M25.219,134.951c0,2.065-3.422,2.991-6.82,2.991V135.82c2.707,0,4.381-.634,4.714-.992a1.057,1.057,0,0,1,2.105.122Z" transform="translate(-11.563 -55.49)"/><path class="c" d="M16.825,148.515a9.436,9.436,0,0,0-4.568.878,9.473,9.473,0,0,0,4.568.87v2.121c-3.406,0-6.836-.927-6.836-2.991s3.43-2.991,6.836-2.991Z" transform="translate(-9.989 -57.829)"/><path class="c" d="M25.219,149.841c0,2.065-3.422,2.991-6.82,2.991V150.71c2.707,0,4.381-.634,4.714-.992a1.057,1.057,0,0,1,2.105.122Z" transform="translate(-11.563 -58.277)"/><path class="c" d="M16.825,163.4a9.436,9.436,0,0,0-4.568.878,9.573,9.573,0,0,0,4.568.87v2.121c-3.406,0-6.836-.927-6.836-2.991s3.43-3,6.836-3Z" transform="translate(-9.989 -60.614)"/><path class="c" d="M25.219,164.729c0,2.065-3.422,2.991-6.82,2.991V165.6c2.707,0,4.381-.634,4.714-1a1.057,1.057,0,0,1,2.105.13Z" transform="translate(-11.563 -61.062)"/><path class="c" d="M16.825,178.293a9.436,9.436,0,0,0-4.568.878,9.573,9.573,0,0,0,4.568.87v2.121c-3.406,0-6.836-.927-6.836-2.991s3.43-3,6.836-3Z" transform="translate(-9.989 -63.402)"/><path class="c" d="M25.219,179.619c0,2.065-3.422,2.991-6.82,2.991v-2.121c2.707,0,4.381-.634,4.714-1a1.057,1.057,0,0,1,2.105.13Z" transform="translate(-11.563 -63.849)"/><path class="c" d="M16.825,193.183a9.436,9.436,0,0,0-4.568.878,9.573,9.573,0,0,0,4.568.87v2.121c-3.406,0-6.836-.927-6.836-2.991s3.43-3,6.836-3Z" transform="translate(-9.989 -66.189)"/><path class="c" d="M25.219,194.509c0,2.065-3.422,2.991-6.82,2.991v-2.121c2.707,0,4.381-.634,4.714-1a1.057,1.057,0,0,1,2.105.13Z" transform="translate(-11.563 -66.636)"/><path class="n" d="M50.227,198.26a35.069,35.069,0,0,1-3.861,5.1,76.583,76.583,0,0,1-7.072,6.5c-1.227,1.057-2.438,2.121-3.625,3.251-.975.927-2.219,1.561-2.438,2.991-.146.813,0,1.869-.642,2.438a1.56,1.56,0,0,1-1.715.122,3.7,3.7,0,0,1-1.276-1.276,2.073,2.073,0,0,1-.309-.626,1.552,1.552,0,0,1,0-.748,7.25,7.25,0,0,1,1.975-2.991,20.191,20.191,0,0,0,1.943-2.6,14.337,14.337,0,0,1,1.626-1.975l4.7-5.291c1.683-1.894,3.414-3.869,4.178-6.283a9.889,9.889,0,0,1,1.032-2.755c1.2-1.756,4.007-2.016,5.852-1.187C52.836,193.976,51.129,196.821,50.227,198.26Z" transform="translate(-13.593 -66.453)"/><path class="n" d="M42.964,194.924s-1.219,10.632,0,16.378a45.6,45.6,0,0,1,.951,10.77c-.4.553,0,1.374.569,1.748a3.837,3.837,0,0,0,1.983.431l2.8.1a1.14,1.14,0,0,0,.927-.236c.366-.4,0-1.065-.488-1.3s-1.065-.252-1.52-.528c-.878-.528-.992-1.723-1.008-2.747l-.073-4.454c-.106-6.4-.2-12.843.813-19.166a2.237,2.237,0,0,0,0-.87,2.141,2.141,0,0,0-1.122-1.13,4.7,4.7,0,0,0-1.683-.7,1.578,1.578,0,0,0-1.585.683" transform="translate(-16.06 -66.588)"/><path class="n" d="M60.862,145.351l1.569.862c.756.415,1.626,1.179,2.438.878a21.728,21.728,0,0,0,3.942-2.723c1.195-.845,2.585-1.869,3.869-2.829a3.2,3.2,0,0,0,.87-.813c.382-.634.39-1.569,1.057-1.894l.374,1.626,2.056-1.089a1.426,1.426,0,0,1,.813-.228c.553.1.813.772.74,1.333-.163,1.878-2.089,2.479-3.617,2.951a5.687,5.687,0,0,0-1.195.431,4.5,4.5,0,0,0-.813.61,22.908,22.908,0,0,0-3.755,3.82,18.783,18.783,0,0,1-1.626,2.008,5.045,5.045,0,0,1-1.8,1.626,3.174,3.174,0,0,1-1.7.065,13.69,13.69,0,0,1-5.527-3.032c-.179-.138-.374-.358-.26-.553a.538.538,0,0,1,.26-.179,3.893,3.893,0,0,0,1.626-1.105A2.112,2.112,0,0,0,60.862,145.351Z" transform="translate(-19.026 -56.412)"/><path class="n" d="M55.558,132.145a2.015,2.015,0,0,1-1.471,1.016.722.722,0,0,0-.455.1.57.57,0,0,0-.106.48l.163,2.1a.761.761,0,0,1-.065.488.811.811,0,0,1-.5.284c-.764.211-1.7.374-2.235-.2a2.208,2.208,0,0,1-.439-1.154,22.9,22.9,0,0,1-.423-7.242,5.1,5.1,0,0,1,2.056-3.731c1.455-.878,5.178-1.146,5.023,1.292a27.49,27.49,0,0,0-.317,2.942A5.881,5.881,0,0,1,55.558,132.145Z" transform="translate(-17.461 -53.57)"/><path class="o" d="M55.938,122.865a1.92,1.92,0,0,1,0,1.317,1.689,1.689,0,0,1-1.1.748c-1.1.3-2.276.219-3.349.561a.98.98,0,0,0-.463.268,1.028,1.028,0,0,0-.154.512,22.067,22.067,0,0,0,.2,6.372,10.227,10.227,0,0,1-6.047-.073,1.537,1.537,0,0,1-1.235-1.292,11.226,11.226,0,0,1,1.073-9,4.479,4.479,0,0,1,3.788-2.438C51.3,119.459,55.247,119.727,55.938,122.865Z" transform="translate(-16.223 -52.832)"/><path class="c" d="M52.037,160.762c-.163,5.194,1.731,10.079,3.146,15.078a17.7,17.7,0,0,1,1.081,6.649,1.314,1.314,0,0,1,0,.179c-6.852,1.975-14.362,2.959-21,.325a56.965,56.965,0,0,0,1.122-10.632,19.186,19.186,0,0,1,.284-4.21,14.832,14.832,0,0,1,3.658-6.2,6.5,6.5,0,0,0,1.479-2.235,6.208,6.208,0,0,0,.1-2.438,48.859,48.859,0,0,1-.2-8.079,19.522,19.522,0,0,1,1.837-7.039,9.435,9.435,0,0,1,1.829-2.723,4.755,4.755,0,0,1,2.9-1.414,3.136,3.136,0,0,1,2.853,1.325c1.666,2.569,4.446,3.146,6.5,5.454a.733.733,0,0,1,.236.415.763.763,0,0,1-.179.48c-.707,1.13-1.422,2.26-2.13,3.4a7.6,7.6,0,0,1-.748,1.016h0c-.252.26-.561.471-.813.732a5.421,5.421,0,0,0-1.17,2.845A45.929,45.929,0,0,0,52.037,160.762Z" transform="translate(-14.721 -56.258)"/><path class="c" d="M51.419,229.7l-.691-.219a6.6,6.6,0,0,0-1.715-.382.6.6,0,0,0-.293.049.653.653,0,0,0-.26.309,1.431,1.431,0,0,1-.406.5,1.493,1.493,0,0,1-1.17,0,5.052,5.052,0,0,1-1.17-.423c-.366-.2-.675-.5-1.049-.675a.811.811,0,0,0-.683-.049.82.82,0,0,0-.268.26,1.578,1.578,0,0,0-.341.569,1.631,1.631,0,0,0,0,.634,1.185,1.185,0,0,0,.154.528,1.148,1.148,0,0,0,.878.325l3.381.211c1.057.065,2.113.13,3.178.114a6.894,6.894,0,0,0,1.731-.187.2.2,0,0,0,.2-.13.224.224,0,0,0,0-.163,2.931,2.931,0,0,0-1.821-1.366" transform="translate(-16.232 -73.244)"/><path class="c" d="M29.574,220.3c.089.333,0,.707.081,1.04a2.135,2.135,0,0,0,.406.715l.813,1.008a1.281,1.281,0,0,0,.333.325,1.384,1.384,0,0,0,1.105-.041.339.339,0,0,1,.309,0,.355.355,0,0,1,.106.187l.471,1.626a8.29,8.29,0,0,1,.317,2.1.607.607,0,0,1-.252.2c-.748.382-2.032-1.317-2.674-1.861a5.692,5.692,0,0,1-1.357-2.113c-.187-.415-.358-.813-.52-1.252A4.087,4.087,0,0,1,28.339,221a.627.627,0,0,1,.341-.569C28.9,220.347,29.477,219.932,29.574,220.3Z" transform="translate(-13.424 -71.633)"/><path class="p" d="M75.769,120.487h2.772l-1.382-2.625Z" transform="translate(-22.302 -52.487)"/><path class="q" d="M58.973,184.562a3.608,3.608,0,0,1-3.007-.3c-1.569-.984-2.195-2.942-2.438-4.771-.626-4.007-.252-8.348-2.365-11.81-.642-1.049-1.536-2.113-1.406-3.349s1.341-2.154,2.032-3.251a8.936,8.936,0,0,0,1.032-4.064c.236-2.642.471-5.291.715-7.933,0,.667,2.926,2.089,3.991,3.113-.252.26-.561.471-.813.732a5.421,5.421,0,0,0-1.17,2.845,46,46,0,0,0-.756,7.072c-.163,5.194,1.731,10.079,3.146,15.078A18.44,18.44,0,0,1,58.973,184.562Z" transform="translate(-17.43 -58.331)"/><path class="r" d="M174.647,204.115H157.375l-2.8-29.383,6.771.228,13.3.439S174.891,188.623,174.647,204.115Z" transform="translate(-37.054 -63.132)"/><path class="r" d="M158.574,171.579l-.211,2.219-2.8,29.148H138.644c-.26-21.946,1.813-34.594,1.813-34.594Z" transform="translate(-34.067 -61.938)"/><path class="g" d="M126.389,134.68c.106,1.935.732,3.633,2.438,4.186a2.206,2.206,0,0,0,.431.122c3.1.618,7.161-1.739,10-3.8a39.958,39.958,0,0,0,3.381-2.755V111.7l-15.07,15.444A23.813,23.813,0,0,0,126.389,134.68Z" transform="translate(-31.777 -51.334)"/><path class="g" d="M141.81,133.967c0,.967-.122,1.951-.122,2.926,0,5.356,1.244,10.884-.358,16.134-.358,1.17-.862,2.438-.447,3.585a4.464,4.464,0,0,0,2.243,2.154c4.722,2.585,10.176,3.373,15.509,4.121,4.007.561,9.689,1.756,13.4-.406,1.577-.918,2.113-2.634,2.617-4.34,1.626-5.43,2.073-11.274,2.5-16.9.057-.74.106-1.487.154-2.227q.463-7.7.309-15.395c-.073-3.723-.366-7.746-2.8-10.567-3.251-3.747-9.494-6.226-14.241-7.1a16.218,16.218,0,0,0-4.682-.26,19.8,19.8,0,0,0-6.34,2.154c-2.357,1.162-4.454,2.146-5.617,4.479a32.1,32.1,0,0,0-2.609,8.526,30.847,30.847,0,0,0-.146,8.339c.138,1.357.5,2.707.626,4.064C141.793,133.5,141.81,133.739,141.81,133.967Z" transform="translate(-34.461 -50.198)"/><path class="s" d="M168.5,166.082c1.552.455,5.137-.967,6.332-1.179.707-.122,1.357-.48,2.065-.65,3.544-.886,3.967-10.851,4.316-13.533.918-7.088,2.333-14.428,2.438-21.54a23.773,23.773,0,0,0-.943-8.128,9.385,9.385,0,0,0-5.316-5.909c-4.536-1.626-5.877,12.7-6.5,15.671l-3.406,16.208a36.539,36.539,0,0,0-.927,6.055c-.122,2.837.813,4.877,1.512,7.38.415,1.414-.723,4.113-.163,5.161A.991.991,0,0,0,168.5,166.082Z" transform="translate(-39.294 -51.954)"/><path class="t" d="M155.343,97.216a3.456,3.456,0,0,0,2.186,1.1,11.384,11.384,0,0,0,2.105,0h.39a.4.4,0,0,1,.293.057.422.422,0,0,1,.122.309,23.518,23.518,0,0,1,.081,4.219h0c0,.252-.041.5-.065.756a1.475,1.475,0,0,0,.065.813,1.383,1.383,0,0,0,.853.561,6.359,6.359,0,0,0,1.9.325,8.492,8.492,0,0,0,3.877-1.366,39.505,39.505,0,0,1,.382-7.193c.447-3.072,1.252-6.145.918-9.234a5.05,5.05,0,0,0-5.852-4.983,11.559,11.559,0,0,0-6.283,1.715,2.443,2.443,0,0,0-.927,1.861c-.244,1.211-.439,2.438-.569,3.658-.154,1.406-.236,2.812-.26,4.219A4.784,4.784,0,0,0,155.343,97.216Z" transform="translate(-37.045 -45.87)"/><path class="u" d="M157.394,83.494c1.569.26,3.251,0,4.779.593,2.081.813,2.967,3.552,2.268,5.69.6.219.715-.862,1.179-1.3s1.512.146,1.626.9a4.562,4.562,0,0,1-.667,2.138,6.382,6.382,0,0,0-.276,4.2c.1.325.333.715.667.626s.561-.642.756-.886a8.724,8.724,0,0,1,.984-1.073c.74-.642,1.536-1.2,2.284-1.829,1.333-1.114,2.568-2.625,2.487-4.357a3.838,3.838,0,0,0-.683-1.967,4.412,4.412,0,0,0-1.292-1.252c-.211-.138-.455-.276-.5-.528a1.029,1.029,0,0,1,.049-.406,4.737,4.737,0,0,0-1.943-4.7,11.481,11.481,0,0,0-5.048-1.869c-1.162-.211-2.325-.374-3.5-.512a7.826,7.826,0,0,1-2.8-.658,7.86,7.86,0,0,1,.927-1.837,8.954,8.954,0,0,0-2.349,1.081,3.708,3.708,0,0,1,.317-1.17,7.139,7.139,0,0,0-3.454,1.975,4.138,4.138,0,0,0-.122,4.674,5.8,5.8,0,0,0,3.885,2.365Z" transform="translate(-36.65 -44.348)"/><path class="v" d="M160.809,101.668h.39a.4.4,0,0,1,.293.057.422.422,0,0,1,.122.309,23.518,23.518,0,0,1,.081,4.219h0s4.064-1.024,3.893-5.99a23.818,23.818,0,0,1-4.755,1.414Z" transform="translate(-38.22 -49.193)"/><path class="g" d="M122.906,122.433a29.66,29.66,0,0,0,.935,10.185,14.423,14.423,0,0,0,3.65,6.242,2.585,2.585,0,0,0,2.382.667,7.532,7.532,0,0,0,4.064-2.178c2.772-3.064.886-7.779.886-7.779s-5.739-9.03-7.015-9.4c-.691-.211-2.089.488-3.251,1.162C123.67,121.888,122.906,122.433,122.906,122.433Z" transform="translate(-31.107 -52.912)"/><path class="s" d="M123.358,129.427A79.092,79.092,0,0,0,125.1,137.2a6.634,6.634,0,0,0,1.073,2.39c1.439,1.764,4.064,1.626,6.015,1.008.634-.2,6.584-2.845,6.34-3.454v-.065l-.959-6.2c.081.5-2.5,2.26-2.837,2.52-1.626,1.244-4.015,3.251-5.934,1.341a6.688,6.688,0,0,1-1.39-2.512,56.869,56.869,0,0,1-2.723-10.014,1.471,1.471,0,0,0-1.9.843l-.016.043a4.274,4.274,0,0,0-.057,2.349C122.9,126.777,123.122,128.11,123.358,129.427Z" transform="translate(-31.062 -53.282)"/><path class="g" d="M189.717,136.557c1.341,3.641,2.528,7.5,1.975,11.339-.658,4.657-3.755,8.551-6.738,12.192-2.341.35-5.413.3-6.242-1.918a5.282,5.282,0,0,1-.163-2.2l.333-4.8a17.99,17.99,0,0,0-.325-6.4c-.707-2.349-2.333-4.284-3.617-6.372a24.747,24.747,0,0,1-3.625-11.225c-.268-3.739,2.552-15.8,8.063-12.192,2.284,1.5,4.308,7.7,5.511,10.193A119.825,119.825,0,0,1,189.717,136.557Z" transform="translate(-40.183 -51.821)"/><path class="t" d="M178.6,173.667a1.1,1.1,0,0,0-.2.626.364.364,0,0,0,.471.325c.561,1.723-.61,3.528-.61,5.348a1.4,1.4,0,0,0,.073.48,1.064,1.064,0,0,0,.4.488,2.145,2.145,0,0,0,2.056.13,5.284,5.284,0,0,0,1.715-1.284,8.8,8.8,0,0,0,2.325-3.487,10.7,10.7,0,0,0,.333-1.9l.561-4.739C182.17,168.49,180.252,170.847,178.6,173.667Z" transform="translate(-41.488 -62.124)"/><path class="t" d="M128.39,113.619a1.833,1.833,0,0,0,.138-.975.633.633,0,0,0-.715-.52c-.2.049-.325.219-.5.317a1.13,1.13,0,0,1-1.276-.163,3.409,3.409,0,0,1-.813-1.1,34.05,34.05,0,0,0-2.105-3.251,1.447,1.447,0,0,0-.675-.593,1.293,1.293,0,0,0-.984.187,4.878,4.878,0,0,0-2.317,3.991,7.677,7.677,0,0,0,1.366,4.536,19.713,19.713,0,0,0,3.194,3.6,2.084,2.084,0,0,0,1.024.642C126.992,120.666,127.968,114.919,128.39,113.619Z" transform="translate(-30.421 -50.511)"/><rect class="w" width="23.978" height="21.125" transform="translate(88.719 19.89)"/></g></g></g><path class="x" d="M100.995,6.944a80.843,80.843,0,0,0-16.256-4.4c-20.719-3.276-43.4,2.8-57.531,18.264C19.4,29.37,14.519,40.188,10.569,51.088,2.091,74.457-2.761,98.638-2.737,123.429A55.659,55.659,0,0,0,13.21,162.071c14.273,14.387,35.382,19.8,55.613,20.865s40.527-1.585,60.758-.5c19.142,1.032,38.2,5.413,57.312,3.95s39.365-10.453,46.924-28.075c8.193-19.117,1.414-52.573-14.875-65.481C200.565,78.277,177.611,70.555,160,55c-7.738-6.82-14.086-15.053-21.271-22.45C128.054,21.583,115.2,12.382,100.995,6.944Z" transform="translate(0 0)"/></g></svg>