<svg xmlns="http://www.w3.org/2000/svg" xmlns:xlink="http://www.w3.org/1999/xlink" width="215.28" height="190.007" viewBox="0 0 215.28 190.007"><defs><style>.a,.j{fill:none;}.b{clip-path:url(#a);}.c{fill:#ffbd39;}.d{fill:#3f3d56;}.e{fill:#dbdbdb;}.f{fill:#f2f2f2;}.g{fill:#2f2e41;}.h{fill:#ffb8b8;}.i{fill:#d0cde1;}.j{stroke:#1b2f3f;stroke-width:5px;opacity:0.1;}</style><clipPath id="a"><path class="a" d="M210.274,100.34c0,28.49-16.7,53.693-42.308,69.036A113.227,113.227,0,0,1,109.792,185c-28.881,0-50.912-10.915-67.484-27.636-15.275-15.408-25.911-35.75-33-57.024C-22.329,5.355,30.523-20.559,109.792,15.68,160.263,38.756,210.274,53.585,210.274,100.34Z" transform="translate(0 0)"/></clipPath></defs><g transform="translate(2.506 2.507)"><g class="b" transform="translate(0 0)"><g transform="translate(0.77 15.775)"><path class="c" d="M313.526,224.757V343.744a113.228,113.228,0,0,1-58.175,15.624c-28.881,0-50.912-10.915-67.484-27.636V224.757Z" transform="translate(-146.331 -189.917)"/><path class="d" d="M240.11,467.237a78.623,78.623,0,0,1,20.3-3.62,63.534,63.534,0,0,1,10.352.405,64.75,64.75,0,0,1,10.047,2.151c3.247.94,6.45,2.026,9.687,3a90.326,90.326,0,0,0,10.011,2.443,84.832,84.832,0,0,0,10.172,1.212,61.958,61.958,0,0,0,10.159-.125,31.086,31.086,0,0,0,9.141-2.317,27.918,27.918,0,0,0,7.434-4.768q.827-.738,1.591-1.541c.3-.314-.177-.793-.478-.478a27.923,27.923,0,0,1-16.108,8.226,53.666,53.666,0,0,1-10.128.406A83.334,83.334,0,0,1,302,471.194a86.081,86.081,0,0,1-9.971-2.27c-3.218-.932-6.391-2.007-9.6-2.976a72.248,72.248,0,0,0-9.881-2.354,62.144,62.144,0,0,0-10.138-.7,77.515,77.515,0,0,0-20.036,2.967q-1.228.345-2.445.728c-.413.13-.237.782.179.651Z" transform="translate(-186.487 -374.42)"/><path class="d" d="M240.11,543.237a78.621,78.621,0,0,1,20.3-3.62,63.534,63.534,0,0,1,10.352.405,64.75,64.75,0,0,1,10.047,2.151c3.247.94,6.45,2.026,9.687,3a90.319,90.319,0,0,0,10.011,2.443,84.832,84.832,0,0,0,10.172,1.212,61.961,61.961,0,0,0,10.159-.125,31.085,31.085,0,0,0,9.141-2.317,27.922,27.922,0,0,0,7.434-4.768q.827-.738,1.591-1.541c.3-.314-.177-.793-.478-.478a27.923,27.923,0,0,1-16.108,8.226,53.686,53.686,0,0,1-10.128.406A83.334,83.334,0,0,1,302,547.194a86.074,86.074,0,0,1-9.971-2.27c-3.218-.932-6.391-2.007-9.6-2.976a72.253,72.253,0,0,0-9.881-2.354,62.151,62.151,0,0,0-10.138-.7,77.516,77.516,0,0,0-20.036,2.967q-1.228.345-2.445.728c-.413.13-.237.782.179.651Z" transform="translate(-186.487 -433.305)"/><path class="d" d="M240.11,398.237a78.621,78.621,0,0,1,20.3-3.62,63.531,63.531,0,0,1,10.352.405,64.746,64.746,0,0,1,10.047,2.151c3.247.94,6.45,2.026,9.687,3a90.319,90.319,0,0,0,10.011,2.443,84.832,84.832,0,0,0,10.172,1.212,61.961,61.961,0,0,0,10.159-.125,31.086,31.086,0,0,0,9.141-2.317,27.921,27.921,0,0,0,7.434-4.768q.827-.738,1.591-1.541c.3-.314-.177-.793-.478-.478a27.923,27.923,0,0,1-16.108,8.226,53.668,53.668,0,0,1-10.128.406A83.328,83.328,0,0,1,302,402.194a86.068,86.068,0,0,1-9.971-2.27c-3.218-.932-6.391-2.007-9.6-2.976a72.244,72.244,0,0,0-9.881-2.354,62.141,62.141,0,0,0-10.138-.7,77.515,77.515,0,0,0-20.036,2.967q-1.228.345-2.445.728c-.413.129-.237.782.179.651Z" transform="translate(-186.487 -320.959)"/><path class="d" d="M236.184,278.672a8.1,8.1,0,0,1,5.2-.178c1.829.453,3.552,1.24,5.352,1.784a18.527,18.527,0,0,0,9.9.188,18.256,18.256,0,0,0,5.187-2.223c.367-.231.028-.815-.341-.583a17.9,17.9,0,0,1-9.53,2.717,17.484,17.484,0,0,1-4.989-.735c-1.787-.536-3.5-1.314-5.307-1.776a8.891,8.891,0,0,0-5.82.222c-.4.176-.053.758.341.583Z" transform="translate(-183.366 -230.773)"/><circle class="e" cx="10.359" cy="10.359" r="10.359" transform="translate(92.656 130.773)"/><circle class="f" cx="5.63" cy="5.63" r="5.63" transform="translate(41.536 2.411)"/><circle class="f" cx="3.828" cy="3.828" r="3.828" transform="translate(92.656 20.202)"/><circle class="f" cx="3.828" cy="3.828" r="3.828" transform="translate(30.502 56.909)"/><rect class="d" width="0.422" height="75.496" transform="translate(18.494 32.296)"/><ellipse class="d" cx="8.232" cy="18.787" rx="8.232" ry="18.787" transform="translate(10.554 63.749)"/><ellipse class="d" cx="8.232" cy="18.787" rx="8.232" ry="18.787" transform="translate(10.554 20.898)"/><path class="d" d="M40.567,111.816l-.4-.121c.025-.085,2.508-8.591-1.568-14.066-2.3-3.092-6.251-4.66-11.74-4.66v-.422c5.63,0,9.694,1.626,12.08,4.832C43.136,103.025,40.593,111.728,40.567,111.816Z" transform="translate(-21.578 -87.48)"/><circle class="d" cx="5.277" cy="5.277" r="5.277"/><g transform="translate(137.861 73.921)"><path class="g" d="M694.745,690.6l-2.314,21.288H708.4l.694-1.62.926,1.62h15.04s-1.157-21.982-3.239-22.676S694.745,690.6,694.745,690.6Z" transform="translate(-675.13 -623.591)"/><circle class="h" cx="8.099" cy="8.099" r="8.099" transform="translate(25.168 4.072)"/><path class="h" d="M742.677,468.584s.694,7.4,0,7.867,11.107.231,11.107.231-1.62-6.71,0-9.95Z" transform="translate(-714.038 -451.323)"/><path class="i" d="M706.141,499.514s5.954.927,6.448-.925l3.039,4.164.231,41.65s-24.758,3.008-25.684-1.851,9.487-43.269,9.487-43.269l2.621-.17S705.679,499.514,706.141,499.514Z" transform="translate(-673.337 -476.005)"/><path class="d" d="M670.653,492.476l-3.97,1.376-11.338,2.777.463,27.767s-9.718,27.766-5.322,29.849,10.644-2.776,12.495-6.247,8.33-51.6,8.33-52.525A15.067,15.067,0,0,0,670.653,492.476Z" transform="translate(-641.746 -471.269)"/><path class="d" d="M787.017,492.476l1.568,1.376,11.107,5.091-5.553,28s7.4,25.453,4.628,26.841-6.942,5.322-7.867,3.008S784.523,495.034,787.017,492.476Z" transform="translate(-747.914 -471.269)"/><path class="h" d="M781.153,649.6s-10.412-4.4-10.644-.463,11.8,6.71,11.8,5.553A34.549,34.549,0,0,0,781.153,649.6Z" transform="translate(-735.622 -591.382)"/><path class="h" d="M693.615,649.627s12.032,9.024,7.4,11.338-10.644-8.1-10.644-8.1Z" transform="translate(-673.538 -593.03)"/><path class="g" d="M734.186,398.611a.446.446,0,0,1,.43-.255c-3.708-.222-7.613.21-10.715,2.254a11.721,11.721,0,0,1-2.669,1.594l.8.63-.959.292,1.412.912a1.223,1.223,0,0,1-1.165.39,2.12,2.12,0,0,1,1.295,1.321,6.279,6.279,0,0,1,.309,1.884,2.328,2.328,0,0,1,2.191-1.517,9.634,9.634,0,0,1,2.8.483,15.479,15.479,0,0,0,6.143.236c-.694,1.392-.109,3.053.48,4.492l1.176,2.875c.653.066,1.114-.584,1.606-1.018.448-.4-1.336,3.085-1.06,2.957a52.206,52.206,0,0,0,4.324-4.7,10.753,10.753,0,0,0,1.222-5.212,7.6,7.6,0,0,0-1.975-4.913c-.843-.888-2.01-1.043-2.87-1.781-.338-.29-.34-.517-.8-.687A13.544,13.544,0,0,0,734.186,398.611Z" transform="translate(-697.324 -398.303)"/><path class="d" d="M630.823,511.609l-1.62-.694L616.246,532.2s-2.314,5.553,1.851,8.1,13.883,10.181,13.883,10.181l5.553-8.562s-11.338-5.322-10.644-7.4,4.4-7.636,4.4-7.636Z" transform="translate(-615.605 -485.555)"/><path class="d" d="M814.656,519.135l3.008.463s12.495,24.527,9.487,29.155-15.272,11.107-15.272,11.107-.231-7.636-2.314-10.412l7.173-2.777L812.8,531.4Z" transform="translate(-765.886 -491.924)"/></g></g></g><path class="j" d="M210.274,100.34c0,28.49-16.7,53.693-42.308,69.036A113.227,113.227,0,0,1,109.792,185c-28.881,0-50.912-10.915-67.484-27.636-15.275-15.408-25.911-35.75-33-57.024C-22.329,5.355,30.523-20.559,109.792,15.68,160.263,38.756,210.274,53.585,210.274,100.34Z"/></g></svg>